<svg width="156" height="31" viewBox="0 0 156 31" fill="none" xmlns="http://www.w3.org/2000/svg">
<path d="M23.5965 27.0647C22.6163 27.0647 21.6944 26.6828 21.0019 25.99C20.3081 25.2979 19.9268 24.3768 19.9268 23.3961C19.9268 22.4171 20.3082 21.4959 21 20.8043C21.6933 20.111 22.6152 19.7292 23.5951 19.7292C24.5748 19.7292 25.496 20.1099 26.1881 20.8027C27.6185 22.2335 27.6185 24.5615 26.1881 25.9919C25.496 26.684 24.5755 27.0647 23.5965 27.0647Z" fill="#737B73"/>
<path d="M3.66974 7.50573C2.68955 7.50573 1.76792 7.12388 1.07465 6.43061C0.381855 5.73851 0 4.81735 0 3.83716C0 2.85745 0.380921 1.93698 1.07302 1.24558C1.76675 0.55161 2.68886 0.169754 3.66927 0.169754C4.64829 0.169754 5.56946 0.550908 6.26109 1.24324C6.95482 1.93651 7.33668 2.85815 7.33668 3.83786C7.33668 4.81805 6.95506 5.73921 6.26179 6.43248C5.56946 7.12434 4.64876 7.50573 3.66974 7.50573Z" fill="#737B73"/>
<path d="M23.4328 7.3983C22.452 7.3983 21.531 7.01645 20.8382 6.32365C19.4085 4.89326 19.4074 2.56643 20.8361 1.13721C21.5294 0.443944 22.451 0.0616226 23.4319 0.0616226C24.4114 0.0616226 25.3326 0.443476 26.0254 1.13604C27.455 2.56573 27.455 4.89373 26.0254 6.32575C25.333 7.01691 24.4119 7.3983 23.4328 7.3983Z" fill="#737B73"/>
<path d="M3.76517 27.0647C2.78498 27.0647 1.86335 26.6828 1.16939 25.99C0.476588 25.2975 0.0954315 24.3768 0.0961313 23.3966C0.0961313 22.4169 0.478686 21.4959 1.17172 20.8031C1.31681 20.6571 1.48033 20.5234 1.6884 20.383C1.75092 20.3394 1.80877 20.3046 1.86848 20.2682C2.00424 20.1903 2.13954 20.1192 2.26574 20.0613C2.33455 20.0306 2.405 19.9988 2.47941 19.9706C2.6112 19.9216 2.75839 19.878 2.92658 19.8381C2.96017 19.829 2.98979 19.8211 3.01989 19.8124C3.03878 19.8073 3.05697 19.801 3.0761 19.7966L3.89277 19.7411C3.99634 19.7455 4.10714 19.7586 4.2254 19.774L4.27206 19.7803C4.29981 19.7835 4.33737 19.7866 4.37493 19.7887L4.40782 19.791L4.44514 19.7984H4.47756C4.53728 19.8008 4.59699 19.8017 4.65601 19.8017C6.06354 19.8017 7.45287 19.2022 8.46828 18.1579C9.47925 17.118 10.0361 15.7191 9.99617 14.3188L9.995 14.2773L9.98731 14.2339C9.97961 14.1947 9.97751 14.155 9.97471 14.1156C9.97121 14.0685 9.96724 14.0218 9.96141 13.9747L9.95231 13.8924C9.94438 13.8219 9.93645 13.7531 9.93179 13.6827L9.9943 12.8634C9.99827 12.8429 10.0057 12.8243 10.0113 12.8042L10.026 12.7536C10.0638 12.5985 10.1039 12.4426 10.1625 12.292C10.1926 12.2063 10.2215 12.1431 10.2528 12.0783C10.3181 11.9351 10.3857 11.8049 10.4653 11.6715C10.4998 11.6136 10.5334 11.5548 10.5733 11.4981C10.7214 11.2821 10.8562 11.117 10.9959 10.977C11.6887 10.2842 12.6097 9.90308 13.591 9.90308C14.5705 9.90308 15.4929 10.2838 16.1861 10.9759C17.6146 12.4063 17.6137 14.7338 16.1828 16.1644C16.0382 16.3095 15.8742 16.4425 15.6657 16.585C15.6048 16.6265 15.547 16.661 15.4889 16.6953C15.3571 16.7742 15.2241 16.8441 15.0919 16.905C15.0203 16.9372 14.9486 16.9703 14.8794 16.9958C14.7389 17.048 14.5901 17.0923 14.4338 17.1276L14.3459 17.152C14.3258 17.1576 14.3065 17.1639 14.2866 17.1691L13.462 17.2276C13.3655 17.2237 13.2642 17.2106 13.1569 17.1968L13.0837 17.1877C13.0592 17.1838 13.0207 17.181 12.982 17.1786L12.953 17.1758L12.9111 17.1677H12.8782C12.818 17.1656 12.7587 17.1649 12.6993 17.1649C11.2917 17.1649 9.90286 17.7637 8.88816 18.8082C7.87671 19.8486 7.31968 21.2489 7.35957 22.649L7.36073 22.6905L7.36843 22.732C7.37613 22.7719 7.37776 22.8111 7.38102 22.8507C7.38429 22.8981 7.38849 22.9445 7.39409 22.9912C7.39572 23.0189 7.40132 23.0695 7.40762 23.119C7.41368 23.1752 7.42115 23.2298 7.42115 23.286V23.3061L7.3619 24.0912C7.35816 24.1078 7.33181 24.1983 7.32434 24.2265C7.28469 24.3959 7.2399 24.5459 7.18975 24.6807C7.16245 24.7558 7.13469 24.8204 7.10227 24.8881C7.03859 25.0273 6.96931 25.161 6.89093 25.2968C6.85641 25.3523 6.81559 25.4176 6.77407 25.4803C6.63761 25.6781 6.50231 25.8445 6.35745 25.99C5.66629 26.6821 4.74535 27.064 3.76563 27.064H3.76517V27.0647Z" fill="#737B73"/>
<path d="M13.6713 27.0646C12.6904 27.0646 11.7688 26.6827 11.0755 25.9894C10.383 25.2969 10.0016 24.3762 10.0011 23.396C10.0006 22.417 10.3818 21.4963 11.0739 20.8053C11.2152 20.6633 11.3757 20.5326 11.595 20.381C11.6494 20.3442 11.7079 20.3083 11.7693 20.273C11.9038 20.1923 12.0335 20.1242 12.1681 20.0622C12.2398 20.0297 12.3097 19.9975 12.3809 19.9707C12.5171 19.9206 12.6655 19.8769 12.8229 19.8422C12.8229 19.8422 12.9519 19.8046 12.9685 19.8007L13.798 19.74C13.8959 19.7444 14.0014 19.7587 14.1119 19.7729L14.1733 19.7811C14.2141 19.785 14.2482 19.7883 14.2825 19.789C14.296 19.7902 14.3098 19.7902 14.3228 19.7913L14.3489 19.7948L14.3835 19.7983C14.4441 19.8 14.5057 19.8016 14.5663 19.8016C15.9711 19.8011 17.3583 19.2026 18.3714 18.1594C19.3823 17.1202 19.9392 15.7194 19.8993 14.3194L19.8941 14.1484L19.879 14.1295C19.8783 14.1239 19.8783 14.1171 19.8778 14.1108C19.8757 14.071 19.8734 14.0308 19.8694 13.9905L19.8559 13.8729C19.8484 13.8083 19.84 13.7446 19.8377 13.6798L19.8946 12.886C19.899 12.8666 19.9277 12.7684 19.9343 12.7388C19.9809 12.5491 20.0217 12.4103 20.0684 12.2869C20.0945 12.2132 20.1265 12.1456 20.1587 12.0744C20.2172 11.9466 20.286 11.8164 20.37 11.6732L20.3859 11.6471C20.4141 11.5988 20.4414 11.5512 20.475 11.5046C20.6252 11.2858 20.7586 11.1211 20.8995 10.9802C21.593 10.2869 22.5151 9.90506 23.4953 9.90506C24.4748 9.90506 25.3955 10.2862 26.0883 10.9785C27.5177 12.4082 27.5177 14.7369 26.0883 16.1682C25.9495 16.3063 25.7841 16.44 25.5688 16.5886C25.5273 16.617 25.4876 16.6408 25.448 16.6646L25.3838 16.7045C25.2611 16.7773 25.1275 16.8473 24.9973 16.907C24.9238 16.9399 24.8548 16.9716 24.7818 16.9989C24.6535 17.0474 24.5119 17.0882 24.3334 17.1309C24.2977 17.1393 24.2688 17.1484 24.2401 17.1571C24.2201 17.1622 24.2014 17.1683 24.182 17.1729L23.3668 17.2291C23.2473 17.224 23.1183 17.2065 22.9933 17.1899C22.9506 17.1848 22.9177 17.1832 22.8853 17.1813C22.8729 17.1809 22.8606 17.1809 22.848 17.179L22.7785 17.1718C22.7178 17.1694 22.6576 17.1683 22.5975 17.1683C21.1916 17.1683 19.8046 17.7673 18.7901 18.8105C17.7798 19.8508 17.2235 21.2506 17.2645 22.6519L17.2657 22.6929L17.2736 22.7333C17.2816 22.7748 17.2832 22.8173 17.2862 22.8588C17.289 22.9019 17.2923 22.9442 17.297 22.9854C17.2998 23.0202 17.3049 23.0645 17.3096 23.1074C17.317 23.1695 17.3245 23.232 17.3261 23.2938L17.2659 24.0988C17.2615 24.1166 17.23 24.225 17.23 24.225C17.1908 24.3955 17.1472 24.5448 17.0954 24.6853C17.0709 24.7513 17.042 24.815 17.0124 24.8814L17.0021 24.9048C16.9415 25.0358 16.8731 25.1655 16.7968 25.2922C16.7595 25.3547 16.7224 25.4161 16.6832 25.4742C16.5395 25.6827 16.404 25.8485 16.2594 25.9946C15.5696 26.6839 14.6503 27.0646 13.6713 27.0646Z" fill="#737B73"/>
<path d="M3.76661 17.1607C2.78642 17.1607 1.86502 16.7795 1.17245 16.0872C0.479421 15.3935 0.097563 14.4723 0.0968632 13.4921C0.0963967 12.5129 0.476853 11.5929 1.16965 10.9008C1.31171 10.7587 1.4771 10.6246 1.68984 10.4779C1.74536 10.4405 1.80787 10.4023 1.87038 10.3647C1.99728 10.2898 2.12674 10.221 2.26484 10.1573C2.33575 10.1249 2.4062 10.0932 2.48108 10.0652C2.6159 10.0158 2.76473 9.9719 2.91985 9.93738L3.01315 9.91126C3.03042 9.90612 3.04698 9.90052 3.06401 9.89656L3.8942 9.83684C4.00197 9.84128 4.1186 9.85667 4.24083 9.87323L4.26649 9.87673C4.30918 9.88116 4.34207 9.88303 4.37566 9.88466C4.38756 9.88513 4.39945 9.88513 4.41135 9.88699L4.44704 9.89329L4.48063 9.89446C4.54221 9.89609 4.60286 9.89725 4.66351 9.89725C6.06777 9.89725 7.45477 9.29893 8.46855 8.25507C9.47905 7.2147 10.0354 5.8144 9.9948 4.41387L9.99364 4.37352L9.98571 4.33363C9.97708 4.28931 9.97614 4.24429 9.97311 4.1988C9.97101 4.16195 9.96868 4.12486 9.96471 4.08637L9.95212 3.97323C9.94372 3.90605 9.93509 3.83794 9.93346 3.76983L9.9885 2.99935L9.99364 2.98162V2.96623C9.99807 2.9485 10.0282 2.84633 10.0282 2.84633C10.0748 2.64922 10.1163 2.50669 10.163 2.38096C10.1891 2.31168 10.2215 2.2424 10.2544 2.17079C10.3141 2.03899 10.3841 1.90556 10.4648 1.76957L10.4774 1.74858C10.5092 1.69563 10.5406 1.64291 10.5763 1.58996C10.7219 1.37909 10.8553 1.2144 10.995 1.07514C11.6885 0.381874 12.6099 1.52588e-05 13.5908 1.52588e-05C14.571 1.52588e-05 15.4922 0.381406 16.1854 1.07397C17.6151 2.50436 17.614 4.83235 16.1838 6.26204C16.0422 6.4041 15.8736 6.54103 15.6671 6.68076C15.6109 6.72064 15.5624 6.74886 15.5125 6.77849L15.4852 6.79436C15.3506 6.8746 15.2181 6.94434 15.0931 7.00172C15.0191 7.03578 14.9498 7.06704 14.8794 7.09316C14.7418 7.14448 14.5957 7.18764 14.4308 7.22566C14.3963 7.23406 14.365 7.24316 14.3338 7.25179C14.3149 7.25692 14.2958 7.26299 14.2764 7.26765L13.4632 7.32456C13.3604 7.31943 13.2503 7.30567 13.1346 7.29098L13.0846 7.28468C13.0471 7.28001 13.0123 7.27838 12.979 7.27604C12.9654 7.27534 12.9517 7.27535 12.9382 7.27325L12.9109 7.26975L12.8752 7.26695C12.8145 7.26462 12.7541 7.26345 12.6932 7.26345C11.2885 7.26345 9.90126 7.86178 8.88772 8.90471C7.87675 9.94508 7.31994 11.3458 7.35983 12.7471L7.361 12.7879L7.36823 12.8282C7.37686 12.8691 7.37849 12.9118 7.38153 12.9533C7.38433 12.9964 7.38783 13.0384 7.39226 13.0816C7.39576 13.1156 7.40065 13.1592 7.40602 13.2026C7.41278 13.264 7.42072 13.3242 7.42188 13.3851L7.36333 14.1847C7.3589 14.205 7.35213 14.2262 7.34584 14.2479L7.32531 14.3195C7.28449 14.4984 7.24133 14.6475 7.19235 14.7797C7.16622 14.849 7.13263 14.9206 7.09904 14.9941C7.03886 15.1259 6.97075 15.2561 6.89097 15.389C6.85318 15.4527 6.81772 15.5124 6.7797 15.5687C6.62924 15.7868 6.49955 15.947 6.35796 16.0874C5.66492 16.78 4.74492 17.1607 3.76661 17.1607Z" fill="#737B73"/>
<path d="M146.296 23.5698L144.712 16.9676C144.633 16.6303 144.553 16.2488 144.473 15.8228C144.393 15.388 144.313 14.9532 144.233 14.5183C144.162 14.0835 144.1 13.6842 144.047 13.3204C143.994 12.9565 143.954 12.6726 143.927 12.4685H143.847C143.821 12.6726 143.776 12.961 143.714 13.3337C143.652 13.6975 143.581 14.1013 143.501 14.545C143.421 14.9887 143.333 15.4412 143.235 15.9027C143.146 16.3553 143.057 16.7768 142.969 17.1672L141.438 23.5698H135.967L131.854 8.48847H136.979L138.203 14.2787C138.292 14.7047 138.381 15.2149 138.47 15.8095C138.567 16.3952 138.652 16.9942 138.723 17.6065C138.802 18.2099 138.856 18.7512 138.882 19.2304H138.962C138.98 18.8666 139.02 18.4495 139.082 17.9792C139.153 17.5 139.228 17.0252 139.308 16.5549C139.397 16.0846 139.477 15.672 139.548 15.317C139.619 14.9532 139.668 14.7047 139.694 14.5716L141.092 8.48847H146.842L148.12 14.6514C148.2 14.9975 148.289 15.4412 148.386 15.9825C148.493 16.515 148.59 17.074 148.679 17.6597C148.777 18.2365 148.848 18.7601 148.892 19.2304H148.972C149.007 18.7424 149.061 18.1877 149.132 17.5666C149.203 16.9454 149.283 16.3419 149.371 15.7563C149.469 15.1617 149.562 14.6692 149.651 14.2787L150.982 8.48847H156L151.86 23.5698H146.296Z" fill="#737B73"/>
<path d="M130.337 15.9958C130.337 17.2559 130.164 18.374 129.817 19.3502C129.471 20.3263 128.97 21.1472 128.313 21.8127C127.657 22.4783 126.862 22.9841 125.931 23.3302C124.999 23.6674 123.947 23.836 122.776 23.836C121.684 23.836 120.682 23.6674 119.768 23.3302C118.863 22.9841 118.073 22.4783 117.398 21.8127C116.724 21.1472 116.2 20.3263 115.828 19.3502C115.464 18.374 115.282 17.2559 115.282 15.9958C115.282 14.3275 115.584 12.9166 116.187 11.7629C116.799 10.6093 117.669 9.7308 118.796 9.12737C119.932 8.52394 121.285 8.22222 122.856 8.22222C124.302 8.22222 125.589 8.52394 126.716 9.12737C127.843 9.7308 128.726 10.6093 129.365 11.7629C130.013 12.9166 130.337 14.3275 130.337 15.9958ZM120.566 15.9958C120.566 16.8566 120.642 17.5843 120.793 18.1788C120.944 18.7645 121.183 19.2126 121.511 19.5232C121.849 19.8249 122.288 19.9758 122.829 19.9758C123.371 19.9758 123.801 19.8249 124.12 19.5232C124.44 19.2126 124.671 18.7645 124.813 18.1788C124.963 17.5843 125.039 16.8566 125.039 15.9958C125.039 15.135 124.963 14.4163 124.813 13.8394C124.671 13.2626 124.435 12.8278 124.107 12.535C123.788 12.2421 123.353 12.0957 122.803 12.0957C122.013 12.0957 121.44 12.424 121.086 13.0807C120.739 13.7374 120.566 14.7091 120.566 15.9958Z" fill="#737B73"/>
<path d="M112.327 23.5698H107.122V2.85791H112.327V23.5698Z" fill="#737B73"/>
<path d="M97.9109 23.5698H92.733V4.10916H104.234V8.32874H97.9109V12.0425H103.741V16.2621H97.9109V23.5698Z" fill="#737B73"/>
<path d="M88.7931 8.48842V23.5697H83.5885V8.48842H88.7931ZM86.2108 2.41862C86.9562 2.41862 87.604 2.57392 88.1542 2.88451C88.7132 3.1951 88.9927 3.81184 88.9927 4.73473C88.9927 5.631 88.7132 6.23887 88.1542 6.55834C87.604 6.86892 86.9562 7.02422 86.2108 7.02422C85.4476 7.02422 84.7954 6.86892 84.254 6.55834C83.7216 6.23887 83.4554 5.631 83.4554 4.73473C83.4554 3.81184 83.7216 3.1951 84.254 2.88451C84.7954 2.57392 85.4476 2.41862 86.2108 2.41862Z" fill="#737B73"/>
<path d="M72.1808 30.1188C70.0422 30.1188 68.3916 29.7594 67.2291 29.0406C66.0755 28.3307 65.4987 27.3057 65.4987 25.9657C65.4987 25.0695 65.7782 24.3285 66.3373 23.7428C66.8964 23.1571 67.735 22.7356 68.8531 22.4783C68.3916 22.283 67.9879 21.968 67.6418 21.5332C67.3046 21.0984 67.136 20.668 67.136 20.242C67.136 19.7717 67.2646 19.3591 67.522 19.0041C67.7793 18.6403 68.3162 18.2099 69.1326 17.7129C68.3517 17.3669 67.735 16.8255 67.2824 16.089C66.8387 15.3525 66.6168 14.4562 66.6168 13.4002C66.6168 12.3087 66.8653 11.3769 67.3623 10.6049C67.8681 9.83285 68.6002 9.24273 69.5586 8.83453C70.5258 8.42632 71.7016 8.22222 73.086 8.22222C73.2723 8.22222 73.5563 8.23997 73.9379 8.27547C74.3195 8.30209 74.7055 8.33758 75.0959 8.38195C75.4864 8.41745 75.7881 8.45294 76.0011 8.48844H81.2589V11.0042L79.1957 11.7629C79.3377 12.0203 79.4442 12.2998 79.5152 12.6015C79.5862 12.9032 79.6217 13.2227 79.6217 13.5599C79.6217 15.1839 79.0493 16.444 77.9045 17.3402C76.7687 18.2365 75.0693 18.6846 72.8064 18.6846C72.2474 18.6846 71.8037 18.6491 71.4753 18.5782C71.4132 18.6935 71.3644 18.8089 71.3289 18.9242C71.3023 19.0307 71.289 19.1328 71.289 19.2304C71.289 19.4345 71.4088 19.5987 71.6484 19.7229C71.8969 19.8383 72.1941 19.9181 72.5402 19.9625C72.8952 20.0069 73.2324 20.029 73.5519 20.029H76.0543C77.7492 20.029 79.0182 20.384 79.8612 21.0939C80.7043 21.8038 81.1258 22.8732 81.1258 24.3019C81.1258 26.1388 80.3404 27.5675 78.7697 28.588C77.2079 29.6085 75.0116 30.1188 72.1808 30.1188ZM72.4337 26.8709C73.0638 26.8709 73.6983 26.8132 74.3372 26.6978C74.9761 26.5914 75.513 26.4139 75.9478 26.1654C76.3826 25.9169 76.6001 25.5886 76.6001 25.1804C76.6001 24.8698 76.4714 24.6346 76.214 24.4749C75.9567 24.3241 75.6239 24.222 75.2157 24.1688C74.8075 24.1155 74.3771 24.0889 73.9246 24.0889H71.9013C71.5286 24.0889 71.1869 24.1466 70.8763 24.2619C70.5746 24.3862 70.335 24.5503 70.1576 24.7544C69.9801 24.9585 69.8913 25.1893 69.8913 25.4466C69.8913 25.8726 70.1221 26.2142 70.5835 26.4716C71.045 26.7378 71.6617 26.8709 72.4337 26.8709ZM73.1392 15.7429C73.6362 15.7429 74.0177 15.5521 74.284 15.1705C74.559 14.789 74.6966 14.2166 74.6966 13.4534C74.6966 12.6725 74.5679 12.0868 74.3106 11.6964C74.0532 11.3059 73.6628 11.1107 73.1392 11.1107C72.5979 11.1107 72.1941 11.3059 71.9279 11.6964C71.6617 12.078 71.5286 12.6548 71.5286 13.4268C71.5286 14.1988 71.6617 14.7801 71.9279 15.1705C72.1941 15.5521 72.5979 15.7429 73.1392 15.7429Z" fill="#737B73"/>
<path d="M63.3957 8.48842V23.5697H58.1911V8.48842H63.3957ZM60.8134 2.41862C61.5588 2.41862 62.2066 2.57392 62.7568 2.88451C63.3158 3.1951 63.5953 3.81184 63.5953 4.73473C63.5953 5.631 63.3158 6.23887 62.7568 6.55834C62.2066 6.86892 61.5588 7.02422 60.8134 7.02422C60.0502 7.02422 59.398 6.86892 58.8566 6.55834C58.3242 6.23887 58.058 5.631 58.058 4.73473C58.058 3.81184 58.3242 3.1951 58.8566 2.88451C59.398 2.57392 60.0502 2.41862 60.8134 2.41862Z" fill="#737B73"/>
<path d="M54.9698 13.4268C54.9698 15.6897 54.5483 17.571 53.7053 19.0707C52.8623 20.5704 51.6732 21.6974 50.138 22.4517C48.6116 23.1971 46.8146 23.5698 44.747 23.5698H38.4509V4.10916H45.1863C47.2805 4.10916 49.0553 4.46856 50.5107 5.18735C51.966 5.90614 53.0708 6.95771 53.8251 8.34205C54.5883 9.72639 54.9698 11.4213 54.9698 13.4268ZM49.5123 13.6132C49.5123 12.433 49.3526 11.4568 49.0331 10.6848C48.7226 9.90387 48.2522 9.32262 47.6222 8.94104C46.9921 8.55059 46.1979 8.35536 45.2395 8.35536H43.7088V19.257H44.8801C46.4774 19.257 47.6488 18.7956 48.3942 17.8727C49.1396 16.9409 49.5123 15.5211 49.5123 13.6132Z" fill="#737B73"/>
</svg>
