<svg width="33" height="33" viewBox="0 0 33 33" fill="none" xmlns="http://www.w3.org/2000/svg">
<path d="M28.3243 24.6632H27.8243V5.16321C27.8243 4.76538 27.6663 4.38385 27.385 4.10255C27.1037 3.82124 26.7222 3.66321 26.3243 3.66321H19.3243C18.9265 3.66321 18.545 3.82124 18.2637 4.10255C17.9824 4.38385 17.8243 4.76538 17.8243 5.16321V9.66321H12.3243C11.9265 9.66321 11.545 9.82124 11.2637 10.1025C10.9824 10.3839 10.8243 10.7654 10.8243 11.1632V15.6632H6.32434C5.92652 15.6632 5.54499 15.8212 5.26368 16.1025C4.98238 16.3839 4.82434 16.7654 4.82434 17.1632V24.6632H4.32434C3.92652 24.6632 3.54499 24.8212 3.26368 25.1025C2.98238 25.3839 2.82434 25.7654 2.82434 26.1632C2.82434 26.561 2.98238 26.9426 3.26368 27.2239C3.54499 27.5052 3.92652 27.6632 4.32434 27.6632H28.3243C28.7222 27.6632 29.1037 27.5052 29.385 27.2239C29.6663 26.9426 29.8243 26.561 29.8243 26.1632C29.8243 25.7654 29.6663 25.3839 29.385 25.1025C29.1037 24.8212 28.7222 24.6632 28.3243 24.6632ZM20.8243 6.66321H24.8243V24.6632H20.8243V6.66321ZM13.8243 12.6632H17.8243V24.6632H13.8243V12.6632ZM7.82434 18.6632H10.8243V24.6632H7.82434V18.6632Z" fill="#7CBE5D"/>
</svg>
