<svg width="33" height="33" viewBox="0 0 33 33" fill="none" xmlns="http://www.w3.org/2000/svg">
<path d="M22.8244 29.1632C22.8244 29.5611 22.6664 29.9426 22.385 30.2239C22.1037 30.5052 21.7222 30.6632 21.3244 30.6632H11.3244C10.9266 30.6632 10.545 30.5052 10.2637 30.2239C9.98242 29.9426 9.82439 29.5611 9.82439 29.1632C9.82439 28.7654 9.98242 28.3839 10.2637 28.1026C10.545 27.8213 10.9266 27.6632 11.3244 27.6632H21.3244C21.7222 27.6632 22.1037 27.8213 22.385 28.1026C22.6664 28.3839 22.8244 28.7654 22.8244 29.1632ZM27.8244 13.1632C27.8289 14.906 27.4352 16.6267 26.6733 18.1941C25.9114 19.7615 24.8014 21.134 23.4281 22.207C23.2422 22.3487 23.0911 22.531 22.9864 22.7401C22.8818 22.9492 22.8263 23.1794 22.8244 23.4132V23.6632C22.8244 24.3263 22.561 24.9622 22.0922 25.431C21.6233 25.8998 20.9874 26.1632 20.3244 26.1632H12.3244C11.6613 26.1632 11.0255 25.8998 10.5566 25.431C10.0878 24.9622 9.82439 24.3263 9.82439 23.6632V23.4132C9.82412 23.1833 9.77099 22.9565 9.66913 22.7504C9.56726 22.5443 9.41937 22.3643 9.23689 22.2245C7.86735 21.1577 6.75839 19.7934 5.99392 18.2348C5.22946 16.6763 4.82953 14.9642 4.82439 13.2282C4.79064 6.99948 9.82439 1.81323 16.0481 1.66323C17.5814 1.62639 19.1066 1.89662 20.5339 2.45804C21.9612 3.01945 23.2617 3.86069 24.359 4.93225C25.4563 6.00382 26.3282 7.28405 26.9233 8.69761C27.5185 10.1112 27.8248 11.6295 27.8244 13.1632ZM24.8244 13.1632C24.8247 12.0294 24.5982 10.907 24.1582 9.86207C23.7182 8.81712 23.0736 7.87077 22.2623 7.07871C21.451 6.28666 20.4895 5.66491 19.4343 5.25008C18.3791 4.83525 17.2516 4.63572 16.1181 4.66323C11.5194 4.77323 7.79939 8.60698 7.82439 13.2107C7.82867 14.4938 8.1246 15.759 8.68981 16.9109C9.25501 18.0627 10.0747 19.071 11.0869 19.8595C11.5968 20.253 12.016 20.7518 12.3158 21.3219C12.6156 21.8921 12.7891 22.5201 12.8244 23.1632H19.8369C19.8729 22.5188 20.0466 21.8896 20.3463 21.318C20.646 20.7463 21.0648 20.2456 21.5744 19.8495C22.5895 19.056 23.4099 18.0412 23.9732 16.8825C24.5364 15.7237 24.8276 14.4516 24.8244 13.1632ZM22.3156 12.4982C22.1829 11.3759 21.7391 10.3129 21.0343 9.42941C20.3295 8.5459 19.3917 7.87701 18.3269 7.49823C17.9547 7.37662 17.5497 7.40537 17.1984 7.57833C16.8471 7.7513 16.5774 8.05476 16.4469 8.42391C16.3163 8.79306 16.3353 9.19862 16.4997 9.55398C16.6641 9.90933 16.961 10.1863 17.3269 10.3257C17.862 10.5133 18.3339 10.8468 18.6894 11.2886C19.0448 11.7304 19.2695 12.2629 19.3381 12.8257C19.3819 13.2212 19.581 13.5832 19.8916 13.8319C20.0454 13.955 20.2219 14.0467 20.4112 14.1016C20.6004 14.1565 20.7986 14.1736 20.9944 14.152C21.1902 14.1303 21.3799 14.0703 21.5525 13.9753C21.7251 13.8804 21.8774 13.7523 22.0005 13.5985C22.1237 13.4447 22.2153 13.2682 22.2703 13.079C22.3252 12.8897 22.3423 12.6916 22.3206 12.4957L22.3156 12.4982Z" fill="#7CBE5D"/>
</svg>
