<svg width="156" height="36" viewBox="0 0 156 36" fill="none" xmlns="http://www.w3.org/2000/svg">
<path d="M17.5762 35.0887C17.5017 35.0887 17.4252 35.0593 17.3684 35.0025L0.0862618 17.7517C0.0313606 17.6968 0 17.6223 0 17.5439C0 17.4654 0.0313606 17.3909 0.0862618 17.336L17.3684 0.0852929C17.4841 -0.028431 17.6684 -0.028431 17.7841 0.0852929L35.0662 17.336C35.1211 17.3909 35.1524 17.4654 35.1524 17.5439C35.1524 17.6223 35.1211 17.6968 35.0662 17.7517L17.7841 35.0025C17.7272 35.0593 17.6507 35.0887 17.5762 35.0887ZM0.709793 17.5439L17.5743 34.3789L34.4387 17.5439L17.5743 0.708815L0.709793 17.5439Z" fill="#737B73"/>
<path d="M30.9662 31.2045C30.8917 31.2045 30.8153 31.175 30.7584 31.1182L26.2643 26.632C26.1486 26.5182 26.1486 26.33 26.2643 26.2163C26.3781 26.1006 26.5643 26.1006 26.68 26.2163L30.9662 30.4947L43.9406 17.5439L30.9662 4.59306L17.7841 17.7517C17.6684 17.8674 17.4821 17.8654 17.3684 17.7517C17.2547 17.636 17.2547 17.4497 17.3684 17.336L30.7584 3.96954C30.8741 3.85582 31.0584 3.85582 31.1741 3.96954L44.5641 17.336C44.619 17.3909 44.6504 17.4654 44.6504 17.5439C44.6504 17.6223 44.619 17.6968 44.5641 17.7517L31.1741 31.1182C31.1172 31.175 31.0407 31.2045 30.9662 31.2045Z" fill="#737B73"/>
<path d="M154.745 13.2233H156L150.353 26.2741H149.249L146.362 19.4727L143.476 26.2741H142.372L136.725 13.2233H137.955L142.949 24.8938L145.635 18.5189L143.451 13.2484H144.581L146.362 17.5401L148.119 13.2484H149.274L147.09 18.5189L149.776 24.8938L154.745 13.2233Z" fill="#737B73"/>
<path d="M129.29 26.5251C128.37 26.5251 127.516 26.3494 126.73 25.998C125.96 25.6467 125.291 25.1615 124.722 24.5424C124.153 23.9066 123.71 23.1787 123.392 22.3589C123.074 21.539 122.915 20.6773 122.915 19.7738C122.915 18.8536 123.074 17.9919 123.392 17.1888C123.71 16.3689 124.153 15.6494 124.722 15.0304C125.308 14.3945 125.985 13.901 126.755 13.5496C127.541 13.1815 128.386 12.9974 129.29 12.9974C130.193 12.9974 131.03 13.1815 131.8 13.5496C132.569 13.901 133.247 14.3945 133.833 15.0304C134.418 15.6494 134.87 16.3689 135.188 17.1888C135.506 17.9919 135.665 18.8536 135.665 19.7738C135.665 20.6773 135.506 21.539 135.188 22.3589C134.87 23.1787 134.418 23.9066 133.833 24.5424C133.264 25.1615 132.586 25.6467 131.8 25.998C131.03 26.3494 130.193 26.5251 129.29 26.5251ZM124.17 19.824C124.17 20.8446 124.396 21.7816 124.848 22.635C125.316 23.4715 125.935 24.1408 126.705 24.6428C127.475 25.1447 128.328 25.3957 129.265 25.3957C130.202 25.3957 131.055 25.1447 131.825 24.6428C132.611 24.1241 133.23 23.4381 133.682 22.5848C134.151 21.7147 134.385 20.7694 134.385 19.7487C134.385 18.7281 134.151 17.7911 133.682 16.9378C133.23 16.0845 132.611 15.4068 131.825 14.9049C131.055 14.3862 130.21 14.1268 129.29 14.1268C128.353 14.1268 127.5 14.3862 126.73 14.9049C125.96 15.4235 125.341 16.1096 124.873 16.9629C124.404 17.8162 124.17 18.7699 124.17 19.824Z" fill="#737B73"/>
<path d="M117.424 7.95282H118.704V23.6891C118.704 24.2914 118.83 24.7097 119.081 24.944C119.331 25.1615 119.658 25.2702 120.059 25.2702C120.327 25.2702 120.603 25.2451 120.888 25.1949C121.172 25.1447 121.423 25.0778 121.64 24.9942L121.891 26.0232C121.607 26.1235 121.256 26.2156 120.837 26.2992C120.419 26.3829 120.059 26.4247 119.758 26.4247C119.055 26.4247 118.487 26.2156 118.052 25.7973C117.633 25.3623 117.424 24.785 117.424 24.0655V7.95282Z" fill="#737B73"/>
<path d="M102.798 26.2741V8.45477H114.394V9.60927H104.078V16.6868H112.837V17.7911H104.078V26.2741H102.798Z" fill="#737B73"/>
<path d="M93.2156 26.5251C92.2284 26.5251 91.3249 26.3494 90.505 25.9981C89.7019 25.63 88.9992 25.1364 88.3968 24.5173C87.8112 23.8815 87.3511 23.1537 87.0165 22.3338C86.6986 21.5139 86.5396 20.6439 86.5396 19.7236C86.5396 18.4855 86.8241 17.3561 87.3929 16.3355C87.9618 15.3148 88.7482 14.495 89.7521 13.8759C90.7728 13.2568 91.9356 12.9473 93.2407 12.9473C94.5625 12.9473 95.7086 13.2652 96.6791 13.901C97.6663 14.5201 98.4276 15.3399 98.963 16.3606C99.5151 17.3645 99.7912 18.452 99.7912 19.6233C99.7912 19.7906 99.7828 19.9579 99.7661 20.1252C99.7661 20.2758 99.7577 20.3929 99.741 20.4766H88.8737C88.9406 21.3299 89.1749 22.0912 89.5764 22.7605C89.9947 23.413 90.5301 23.9317 91.1827 24.3165C91.8352 24.6846 92.538 24.8687 93.2909 24.8687C94.094 24.8687 94.8469 24.6679 95.5497 24.2663C96.2692 23.8648 96.7627 23.3377 97.0304 22.6852L98.9379 23.2122C98.6534 23.848 98.2268 24.4169 97.6579 24.9189C97.1057 25.4208 96.4448 25.814 95.6752 26.0985C94.9222 26.3829 94.1024 26.5251 93.2156 26.5251ZM88.7984 18.9456H97.7332C97.6663 18.0923 97.4236 17.3394 97.0054 16.6868C96.5871 16.0343 96.0516 15.524 95.3991 15.1559C94.7466 14.7878 94.0271 14.6037 93.2407 14.6037C92.471 14.6037 91.7599 14.7878 91.1074 15.1559C90.4549 15.524 89.9194 16.0343 89.5011 16.6868C89.0996 17.3394 88.8653 18.0923 88.7984 18.9456Z" fill="#737B73"/>
<path d="M83.9836 26.2741H81.775V18.9456C81.775 17.5569 81.5575 16.5446 81.1224 15.9088C80.7041 15.2563 80.06 14.93 79.1899 14.93C78.5876 14.93 77.9852 15.0806 77.3829 15.3817C76.7973 15.6829 76.2702 16.0928 75.8017 16.6115C75.35 17.1135 75.0237 17.6991 74.8229 18.3684V26.2741H72.6143V13.1731H74.6221V15.9841C74.9735 15.365 75.4253 14.8296 75.9774 14.3778C76.5296 13.9261 77.157 13.5747 77.8597 13.3237C78.5625 13.0728 79.2987 12.9473 80.0683 12.9473C80.8213 12.9473 81.4487 13.0895 81.9507 13.3739C82.4693 13.6416 82.8709 14.0265 83.1554 14.5284C83.4565 15.0136 83.6657 15.5909 83.7828 16.2602C83.9166 16.9294 83.9836 17.6573 83.9836 18.4437V26.2741Z" fill="#737B73"/>
<path d="M66.8301 26.2741V13.1731H69.0387V26.2741H66.8301ZM66.8301 10.7136V7.95282H69.0387V10.7136H66.8301Z" fill="#737B73"/>
<path d="M52.5248 26.2741V8.45477H54.7836V24.2663H64.7223V26.2741H52.5248Z" fill="#737B73"/>
</svg>
