<svg width="156" height="20" viewBox="0 0 156 20" fill="none" xmlns="http://www.w3.org/2000/svg">
<path d="M6.80229 2.04069C6.80229 0.935315 7.69509 0 8.84298 0H10.2034C11.3088 0 12.2441 0.935315 12.2441 2.04069V17.0057C12.2441 18.1536 11.3088 19.0464 10.2034 19.0464H8.84298C7.69509 19.0464 6.80229 18.1536 6.80229 17.0057V2.04069ZM0 10.2034C0 9.09806 0.892801 8.16275 2.04069 8.16275H3.40115C4.50652 8.16275 5.44183 9.09806 5.44183 10.2034V17.0057C5.44183 18.1536 4.50652 19.0464 3.40115 19.0464H2.04069C0.892801 19.0464 0 18.1536 0 17.0057V10.2034ZM17.0057 2.72092C18.1111 2.72092 19.0464 3.65623 19.0464 4.7616V17.0057C19.0464 18.1536 18.1111 19.0464 17.0057 19.0464H15.6453C14.4974 19.0464 13.6046 18.1536 13.6046 17.0057V4.7616C13.6046 3.65623 14.4974 2.72092 15.6453 2.72092H17.0057Z" fill="#737B73"/>
<path d="M156 5.77559L152.713 17.9218H148.599L146.684 10.042L144.703 17.9218H140.611L137.302 5.77559H141.024L142.744 14.4608L144.79 5.77559H148.73L150.798 14.4172L152.496 5.77559H156Z" fill="#737B73"/>
<path d="M130.234 18.0959C129.044 18.0959 127.97 17.842 127.012 17.334C126.069 16.8261 125.322 16.1006 124.77 15.1573C124.233 14.2141 123.965 13.1112 123.965 11.8487C123.965 10.6007 124.24 9.50507 124.792 8.56181C125.343 7.60405 126.098 6.87122 127.056 6.36331C128.013 5.85541 129.087 5.60146 130.277 5.60146C131.467 5.60146 132.541 5.85541 133.499 6.36331C134.457 6.87122 135.211 7.60405 135.763 8.56181C136.314 9.50507 136.59 10.6007 136.59 11.8487C136.59 13.0967 136.307 14.1996 135.741 15.1573C135.189 16.1006 134.428 16.8261 133.455 17.334C132.498 17.842 131.424 18.0959 130.234 18.0959ZM130.234 14.8743C130.945 14.8743 131.547 14.6131 132.04 14.0907C132.548 13.5683 132.802 12.821 132.802 11.8487C132.802 10.8764 132.556 10.1291 132.062 9.60664C131.583 9.08423 130.988 8.82302 130.277 8.82302C129.552 8.82302 128.949 9.08423 128.471 9.60664C127.992 10.1145 127.752 10.8619 127.752 11.8487C127.752 12.821 127.984 13.5683 128.449 14.0907C128.928 14.6131 129.523 14.8743 130.234 14.8743Z" fill="#737B73"/>
<path d="M122.007 1.81395V17.9218H118.285V1.81395H122.007Z" fill="#737B73"/>
<path d="M116.329 2.6411V5.62322H110.103V8.84479H114.761V11.7398H110.103V17.9218H106.381V2.6411H116.329Z" fill="#737B73"/>
<path d="M99.1798 5.645C100.573 5.645 101.69 6.10937 102.532 7.03811C103.374 7.95234 103.794 9.21484 103.794 10.8256V17.9218H100.094V11.3263C100.094 10.5136 99.8836 9.88237 99.4628 9.43251C99.042 8.98266 98.476 8.75773 97.7649 8.75773C97.0539 8.75773 96.4879 8.98266 96.0671 9.43251C95.6463 9.88237 95.4358 10.5136 95.4358 11.3263V17.9218H91.7136V1.81395H95.4358V7.40815C95.8131 6.87123 96.3283 6.44313 96.9813 6.12388C97.6343 5.80463 98.3672 5.645 99.1798 5.645Z" fill="#737B73"/>
<path d="M77.7941 11.8487C77.7941 10.5862 78.048 9.4833 78.5559 8.54005C79.0783 7.59679 79.7967 6.87122 80.7109 6.36331C81.6396 5.85541 82.699 5.60146 83.8889 5.60146C85.4126 5.60146 86.6824 6.00052 87.6982 6.79866C88.7285 7.59679 89.4033 8.72144 89.7226 10.1726H85.7609C85.4271 9.24386 84.7814 8.77949 83.8236 8.77949C83.1416 8.77949 82.5974 9.04795 82.1911 9.58488C81.7847 10.1073 81.5816 10.8619 81.5816 11.8487C81.5816 12.8355 81.7847 13.5973 82.1911 14.1342C82.5974 14.6567 83.1416 14.9179 83.8236 14.9179C84.7814 14.9179 85.4271 14.4535 85.7609 13.5248H89.7226C89.4033 14.9469 88.7285 16.0643 87.6982 16.8769C86.6679 17.6896 85.3981 18.0959 83.8889 18.0959C82.699 18.0959 81.6396 17.842 80.7109 17.334C79.7967 16.8261 79.0783 16.1006 78.5559 15.1573C78.048 14.2141 77.7941 13.1112 77.7941 11.8487Z" fill="#737B73"/>
<path d="M72.9458 7.79995C73.3811 7.13242 73.9253 6.61001 74.5783 6.23271C75.2314 5.84089 75.9569 5.64499 76.7551 5.64499V9.58487H75.732C74.8033 9.58487 74.1067 9.78804 73.6423 10.1944C73.178 10.5862 72.9458 11.2827 72.9458 12.284V17.9218H69.2236V5.77559H72.9458V7.79995Z" fill="#737B73"/>
<path d="M53.7098 11.8269C53.7098 10.5789 53.942 9.4833 54.4064 8.54005C54.8853 7.59679 55.531 6.87122 56.3437 6.36331C57.1563 5.85541 58.0633 5.60146 59.0646 5.60146C59.9208 5.60146 60.6681 5.77559 61.3066 6.12387C61.9597 6.47215 62.4603 6.92926 62.8086 7.49521V5.7756H66.5308V17.9218H62.8086V16.2021C62.4458 16.7681 61.9379 17.2252 61.2849 17.5735C60.6464 17.9218 59.899 18.0959 59.0428 18.0959C58.0561 18.0959 57.1563 17.842 56.3437 17.334C55.531 16.8116 54.8853 16.0788 54.4064 15.1355C53.942 14.1778 53.7098 13.0749 53.7098 11.8269ZM62.8086 11.8487C62.8086 10.9199 62.5474 10.1871 62.025 9.65018C61.5171 9.11325 60.8931 8.84479 60.153 8.84479C59.4129 8.84479 58.7816 9.11325 58.2592 9.65018C57.7513 10.1726 57.4974 10.8982 57.4974 11.8269C57.4974 12.7557 57.7513 13.4957 58.2592 14.0472C58.7816 14.5841 59.4129 14.8526 60.153 14.8526C60.8931 14.8526 61.5171 14.5841 62.025 14.0472C62.5474 13.5103 62.8086 12.7774 62.8086 11.8487Z" fill="#737B73"/>
<path d="M52.4863 11.6528C52.4863 12.0011 52.4645 12.3638 52.421 12.7411H43.997C44.0551 13.4957 44.2945 14.0762 44.7153 14.4825C45.1507 14.8743 45.6804 15.0702 46.3044 15.0702C47.2331 15.0702 47.8789 14.6784 48.2416 13.8948H52.2033C52.0001 14.6929 51.6301 15.4113 51.0932 16.0498C50.5707 16.6883 49.9105 17.1889 49.1123 17.5517C48.3142 17.9145 47.4217 18.0959 46.435 18.0959C45.245 18.0959 44.1857 17.842 43.2569 17.334C42.3282 16.8261 41.6026 16.1006 41.0802 15.1573C40.5578 14.2141 40.2966 13.1112 40.2966 11.8487C40.2966 10.5862 40.5505 9.4833 41.0584 8.54005C41.5808 7.59679 42.3064 6.87122 43.2352 6.36331C44.1639 5.85541 45.2305 5.60146 46.435 5.60146C47.6104 5.60146 48.6552 5.84815 49.5695 6.34155C50.4837 6.83494 51.1947 7.53875 51.7027 8.45298C52.2251 9.3672 52.4863 10.4338 52.4863 11.6528ZM48.677 10.6732C48.677 10.0347 48.4593 9.52683 48.024 9.14953C47.5886 8.77223 47.0444 8.58358 46.3914 8.58358C45.7674 8.58358 45.2378 8.76497 44.8024 9.12776C44.3816 9.49055 44.1204 10.0057 44.0188 10.6732H48.677Z" fill="#737B73"/>
<path d="M33.1735 18.0741C32.0561 18.0741 31.0548 17.8927 30.1696 17.53C29.2844 17.1672 28.5733 16.6302 28.0364 15.9192C27.514 15.2081 27.2383 14.3519 27.2092 13.3506H31.1709C31.2289 13.9166 31.4248 14.3519 31.7586 14.6567C32.0924 14.9469 32.5277 15.092 33.0646 15.092C33.6161 15.092 34.0514 14.9687 34.3707 14.722C34.6899 14.4608 34.8496 14.1052 34.8496 13.6554C34.8496 13.2781 34.719 12.9661 34.4577 12.7194C34.2111 12.4727 33.8991 12.2695 33.5218 12.1099C33.159 11.9503 32.6365 11.7689 31.9545 11.5657C30.9677 11.261 30.1623 10.9562 29.5383 10.6515C28.9143 10.3467 28.3774 9.89688 27.9276 9.30191C27.4777 8.70693 27.2528 7.93057 27.2528 6.9728C27.2528 5.55067 27.7679 4.44054 28.7982 3.6424C29.8286 2.82975 31.1709 2.42343 32.8252 2.42343C34.5085 2.42343 35.8654 2.82975 36.8957 3.6424C37.926 4.44054 38.4774 5.55793 38.55 6.99457H34.5231C34.494 6.50118 34.3126 6.11662 33.9789 5.8409C33.6451 5.55067 33.217 5.40555 32.6946 5.40555C32.2447 5.40555 31.8819 5.5289 31.6062 5.7756C31.3305 6.00778 31.1926 6.34881 31.1926 6.79866C31.1926 7.29206 31.4248 7.67661 31.8892 7.95233C32.3536 8.22805 33.0792 8.52554 34.0659 8.84479C35.0527 9.17856 35.8509 9.49781 36.4603 9.80256C37.0843 10.1073 37.6213 10.5499 38.0711 11.1304C38.521 11.7108 38.7459 12.4582 38.7459 13.3724C38.7459 14.2431 38.521 15.034 38.0711 15.745C37.6358 16.4561 36.9973 17.0221 36.1556 17.4429C35.3139 17.8637 34.3199 18.0741 33.1735 18.0741Z" fill="#737B73"/>
</svg>
