<svg width="156" height="26" viewBox="0 0 156 26" fill="none" xmlns="http://www.w3.org/2000/svg">
<path d="M156 8.94011L153.048 19.8492H149.353L147.632 12.772L145.853 19.8492H142.178L139.206 8.94011H142.549L144.094 16.7407L145.932 8.94011H149.47L151.327 16.7016L152.852 8.94011H156Z" fill="#737B73"/>
<path d="M132.858 20.0056C131.789 20.0056 130.825 19.7775 129.964 19.3213C129.117 18.8652 128.446 18.2135 127.951 17.3663C127.468 16.5191 127.227 15.5286 127.227 14.3947C127.227 13.2738 127.475 12.2897 127.97 11.4426C128.465 10.5823 129.143 9.92414 130.003 9.46797C130.864 9.01179 131.828 8.78371 132.897 8.78371C133.966 8.78371 134.93 9.01179 135.79 9.46797C136.651 9.92414 137.328 10.5823 137.824 11.4426C138.319 12.2897 138.567 13.2738 138.567 14.3947C138.567 15.5155 138.312 16.5061 137.804 17.3663C137.309 18.2135 136.625 18.8652 135.751 19.3213C134.891 19.7775 133.927 20.0056 132.858 20.0056ZM132.858 17.1122C133.496 17.1122 134.037 16.8776 134.48 16.4083C134.937 15.9391 135.165 15.2679 135.165 14.3947C135.165 13.5214 134.943 12.8502 134.5 12.381C134.07 11.9118 133.536 11.6772 132.897 11.6772C132.245 11.6772 131.704 11.9118 131.274 12.381C130.844 12.8371 130.629 13.5084 130.629 14.3947C130.629 15.2679 130.838 15.9391 131.255 16.4083C131.685 16.8776 132.219 17.1122 132.858 17.1122Z" fill="#737B73"/>
<path d="M125.469 5.38194V19.8492H122.126V5.38194H125.469Z" fill="#737B73"/>
<path d="M120.369 6.12485V8.80325H114.778V11.6967H118.961V14.2969H114.778V19.8492H111.435V6.12485H120.369Z" fill="#737B73"/>
<path d="M102.31 8.78371C103.079 8.78371 103.75 8.94011 104.324 9.25292C104.91 9.56572 105.36 9.97628 105.673 10.4846V8.94011H109.016V19.8297C109.016 20.8332 108.814 21.7391 108.41 22.5472C108.019 23.3683 107.413 24.02 106.592 24.5022C105.784 24.9844 104.774 25.2256 103.561 25.2256C101.945 25.2256 100.635 24.8411 99.6318 24.0721C98.6283 23.3161 98.0548 22.2865 97.9114 20.9831H101.215C101.32 21.4002 101.567 21.726 101.958 21.9606C102.349 22.2083 102.832 22.3321 103.405 22.3321C104.096 22.3321 104.643 22.1301 105.047 21.726C105.464 21.335 105.673 20.7029 105.673 19.8297V18.2852C105.347 18.7935 104.897 19.2106 104.324 19.5364C103.75 19.8492 103.079 20.0056 102.31 20.0056C101.411 20.0056 100.596 19.7775 99.8664 19.3213C99.1366 18.8521 98.5566 18.1939 98.1265 17.3468C97.7094 16.4865 97.5009 15.496 97.5009 14.3751C97.5009 13.2542 97.7094 12.2702 98.1265 11.423C98.5566 10.5758 99.1366 9.92414 99.8664 9.46797C100.596 9.01179 101.411 8.78371 102.31 8.78371ZM105.673 14.3947C105.673 13.5605 105.438 12.9023 104.969 12.4201C104.513 11.9378 103.952 11.6967 103.288 11.6967C102.623 11.6967 102.056 11.9378 101.587 12.4201C101.131 12.8893 100.903 13.541 100.903 14.3751C100.903 15.2093 101.131 15.874 101.587 16.3692C102.056 16.8515 102.623 17.0926 103.288 17.0926C103.952 17.0926 104.513 16.8515 104.969 16.3692C105.438 15.887 105.673 15.2288 105.673 14.3947Z" fill="#737B73"/>
<path d="M91.6391 8.82281C92.9164 8.82281 93.933 9.23988 94.689 10.074C95.458 10.8951 95.8425 12.0291 95.8425 13.4758V19.8492H92.5189V13.9255C92.5189 13.1956 92.3299 12.6286 91.9519 12.2246C91.574 11.8205 91.0656 11.6185 90.427 11.6185C89.7884 11.6185 89.28 11.8205 88.9021 12.2246C88.5241 12.6286 88.3351 13.1956 88.3351 13.9255V19.8492H84.992V8.94011H88.3351V10.3868C88.674 9.90459 89.1302 9.52662 89.7036 9.25291C90.2771 8.96618 90.9223 8.82281 91.6391 8.82281Z" fill="#737B73"/>
<path d="M80.9075 7.80618C80.321 7.80618 79.8387 7.63674 79.4607 7.29787C79.0958 6.94596 78.9133 6.51585 78.9133 6.00755C78.9133 5.4862 79.0958 5.05609 79.4607 4.71722C79.8387 4.36531 80.321 4.18936 80.9075 4.18936C81.4809 4.18936 81.9502 4.36531 82.3151 4.71722C82.6931 5.05609 82.8821 5.4862 82.8821 6.00755C82.8821 6.51585 82.6931 6.94596 82.3151 7.29787C81.9502 7.63674 81.4809 7.80618 80.9075 7.80618ZM82.5692 8.9401V19.8492H79.2261V8.9401H82.5692Z" fill="#737B73"/>
<path d="M65.2924 14.3751C65.2924 13.2542 65.501 12.2702 65.918 11.423C66.3481 10.5758 66.9281 9.92413 67.658 9.46796C68.3879 9.01178 69.2025 8.7837 70.1018 8.7837C70.8187 8.7837 71.4703 8.93358 72.0568 9.23335C72.6564 9.53313 73.1256 9.93717 73.4645 10.4455V5.38194H76.8076V19.8492H73.4645V18.2852C73.1517 18.8065 72.702 19.2236 72.1155 19.5364C71.542 19.8492 70.8708 20.0056 70.1018 20.0056C69.2025 20.0056 68.3879 19.7775 67.658 19.3213C66.9281 18.8521 66.3481 18.1939 65.918 17.3468C65.501 16.4865 65.2924 15.496 65.2924 14.3751ZM73.4645 14.3946C73.4645 13.5605 73.2299 12.9023 72.7607 12.4201C72.3045 11.9378 71.744 11.6967 71.0793 11.6967C70.4146 11.6967 69.8477 11.9378 69.3784 12.4201C68.9223 12.8893 68.6942 13.5409 68.6942 14.3751C68.6942 15.2092 68.9223 15.874 69.3784 16.3692C69.8477 16.8515 70.4146 17.0926 71.0793 17.0926C71.744 17.0926 72.3045 16.8515 72.7607 16.3692C73.2299 15.887 73.4645 15.2288 73.4645 14.3946Z" fill="#737B73"/>
<path d="M59.4306 8.82281C60.7079 8.82281 61.7245 9.23988 62.4805 10.074C63.2495 10.8951 63.634 12.0291 63.634 13.4758V19.8492H60.3104V13.9255C60.3104 13.1956 60.1214 12.6286 59.7434 12.2246C59.3655 11.8205 58.8572 11.6185 58.2185 11.6185C57.5799 11.6185 57.0716 11.8205 56.6936 12.2246C56.3156 12.6286 56.1266 13.1956 56.1266 13.9255V19.8492H52.7835V8.94011H56.1266V10.3868C56.4655 9.90459 56.9217 9.52662 57.4951 9.25291C58.0686 8.96618 58.7138 8.82281 59.4306 8.82281Z" fill="#737B73"/>
<path d="M38.8498 14.3751C38.8498 13.2542 39.0583 12.2702 39.4754 11.423C39.9055 10.5758 40.4855 9.92414 41.2154 9.46797C41.9453 9.01179 42.7599 8.78371 43.6592 8.78371C44.4282 8.78371 45.0994 8.94011 45.6729 9.25292C46.2594 9.56572 46.709 9.97628 47.0218 10.4846V8.94011H50.365V19.8492H47.0218V18.3047C46.696 18.813 46.2398 19.2236 45.6533 19.5364C45.0798 19.8492 44.4086 20.0056 43.6396 20.0056C42.7533 20.0056 41.9453 19.7775 41.2154 19.3213C40.4855 18.8521 39.9055 18.1939 39.4754 17.3468C39.0583 16.4865 38.8498 15.496 38.8498 14.3751ZM47.0218 14.3947C47.0218 13.5605 46.7872 12.9023 46.318 12.4201C45.8619 11.9378 45.3014 11.6967 44.6367 11.6967C43.972 11.6967 43.405 11.9378 42.9358 12.4201C42.4796 12.8893 42.2516 13.541 42.2516 14.3751C42.2516 15.2093 42.4796 15.874 42.9358 16.3692C43.405 16.8515 43.972 17.0926 44.6367 17.0926C45.3014 17.0926 45.8619 16.8515 46.318 16.3692C46.7872 15.887 47.0218 15.2288 47.0218 14.3947Z" fill="#737B73"/>
<path d="M33.5406 17.2685H37.9199V19.8492H30.1975V6.12485H33.5406V17.2685Z" fill="#737B73"/>
<path d="M2.4319 11.5022C2.66402 9.53017 3.46015 7.66989 4.72231 6.15032C4.86197 5.9797 5.03523 5.84049 5.23103 5.74159C5.42682 5.64269 5.64083 5.58629 5.85937 5.57598C6.07791 5.56567 6.29617 5.60169 6.50018 5.68173C6.7042 5.76177 6.88948 5.88407 7.04417 6.04081L9.763 8.85415C10.0248 9.11882 10.1853 9.46918 10.2157 9.84265C10.2461 10.2161 10.1445 10.5884 9.92906 10.893C9.76584 11.1276 9.64292 11.3884 9.5655 11.6645C9.54091 11.746 9.49118 11.8173 9.42362 11.868C9.35606 11.9187 9.27423 11.9461 9.19015 11.9462H2.82297C2.76748 11.9463 2.71261 11.9345 2.66196 11.9116C2.6113 11.8886 2.56602 11.8551 2.52907 11.8132C2.49213 11.7712 2.46438 11.7218 2.44763 11.6682C2.43088 11.6146 2.42552 11.5581 2.4319 11.5022ZM13.4998 2.39522C13.2826 2.37603 13.0639 2.40281 12.8575 2.47384C12.6511 2.54488 12.4616 2.65862 12.3009 2.80784C12.1402 2.95706 12.0119 3.13851 11.9241 3.34066C11.8364 3.54281 11.7911 3.76124 11.7911 3.98208V8.03085C11.7884 8.40654 11.9179 8.7709 12.1566 9.05847C12.3952 9.34604 12.7272 9.53797 13.093 9.59979C13.7817 9.71491 14.4131 10.059 14.8875 10.5777C15.362 11.0965 15.6526 11.7604 15.7135 12.465C15.7744 13.1695 15.6022 13.8746 15.224 14.469C14.8458 15.0634 14.2831 15.5134 13.6246 15.7481C13.5479 15.7766 13.4818 15.8283 13.435 15.8961C13.3883 15.964 13.3632 16.0447 13.3632 16.1274V22.6212C13.3628 22.6776 13.3743 22.7334 13.3968 22.7849C13.4193 22.8365 13.4524 22.8826 13.4938 22.9203C13.5352 22.9579 13.5841 22.9862 13.6371 23.0033C13.6902 23.0204 13.7462 23.0259 13.8014 23.0194C16.2539 22.7126 18.5144 21.5188 20.1671 19.6576C21.8198 17.7965 22.7534 15.3931 22.7961 12.89C22.8698 7.48531 18.7861 2.87506 13.4998 2.39522ZM11.5209 15.7451C11.0815 15.5863 10.6824 15.3305 10.3527 14.9961C10.023 14.6617 9.77091 14.2572 9.61463 13.8118C9.58783 13.7329 9.53755 13.6642 9.47069 13.6154C9.40382 13.5665 9.32367 13.5399 9.24125 13.5391H2.82198C2.76643 13.5387 2.71143 13.5503 2.66062 13.573C2.6098 13.5958 2.56432 13.6292 2.52718 13.6711C2.49004 13.7129 2.46209 13.7623 2.44515 13.8159C2.42822 13.8695 2.4227 13.9261 2.42895 13.9821C2.70419 16.2831 3.73287 18.4243 5.35059 20.0633C6.96831 21.7023 9.08165 22.7445 11.3528 23.0234C11.408 23.0297 11.4639 23.0241 11.5168 23.007C11.5698 22.9898 11.6185 22.9615 11.6598 22.9238C11.7011 22.8862 11.7341 22.8401 11.7566 22.7887C11.779 22.7372 11.7904 22.6814 11.7901 22.6252V16.1274C11.7902 16.0432 11.7644 15.961 11.7161 15.8925C11.6678 15.8239 11.5995 15.7724 11.5209 15.7451Z" fill="#737B73"/>
</svg>
