<svg width="156" height="22" viewBox="0 0 156 22" fill="none" xmlns="http://www.w3.org/2000/svg">
<path d="M153.209 6.50819H156L150.153 20.4093H147.654L145.156 14.1365L142.657 20.4093H140.159L134.285 6.50819H137.075L141.541 17.5653L143.508 12.4354L141.115 6.53477H143.587L145.156 10.8672L146.697 6.53477H149.169L146.804 12.4354L148.77 17.5653L153.209 6.50819Z" fill="#737B73"/>
<path d="M126.604 20.6751C125.505 20.6751 124.521 20.489 123.653 20.1169C122.785 19.7271 122.032 19.1955 121.394 18.5221C120.774 17.8488 120.295 17.0868 119.959 16.2363C119.622 15.368 119.454 14.4466 119.454 13.472C119.454 12.4974 119.622 11.576 119.959 10.7078C120.295 9.83949 120.774 9.07754 121.394 8.42192C122.032 7.74857 122.785 7.22584 123.653 6.85372C124.539 6.46389 125.523 6.26897 126.604 6.26897C127.684 6.26897 128.659 6.46389 129.527 6.85372C130.413 7.22584 131.166 7.74857 131.787 8.42192C132.424 9.07754 132.912 9.83949 133.248 10.7078C133.585 11.576 133.753 12.4974 133.753 13.472C133.753 14.4466 133.585 15.368 133.248 16.2363C132.912 17.0868 132.424 17.8488 131.787 18.5221C131.166 19.1955 130.413 19.7271 129.527 20.1169C128.659 20.489 127.684 20.6751 126.604 20.6751ZM122.457 13.4986C122.457 14.3846 122.643 15.182 123.015 15.8908C123.387 16.5996 123.884 17.1577 124.504 17.5653C125.124 17.9728 125.824 18.1766 126.604 18.1766C127.365 18.1766 128.057 17.9728 128.677 17.5653C129.315 17.14 129.82 16.573 130.192 15.8642C130.564 15.1377 130.75 14.3403 130.75 13.472C130.75 12.586 130.564 11.7887 130.192 11.0799C129.82 10.3711 129.315 9.81291 128.677 9.40536C128.057 8.98009 127.365 8.76745 126.604 8.76745C125.824 8.76745 125.124 8.98009 124.504 9.40536C123.884 9.83063 123.387 10.3977 123.015 11.1064C122.643 11.7975 122.457 12.5949 122.457 13.4986Z" fill="#737B73"/>
<path d="M112.389 1.00623H115.313V16.3958C115.313 17.1046 115.419 17.5564 115.632 17.7513C115.845 17.9462 116.11 18.0437 116.429 18.0437C116.784 18.0437 117.112 18.0083 117.413 17.9374C117.732 17.8665 118.006 17.7779 118.237 17.6716L118.662 19.984C118.237 20.1612 117.732 20.3118 117.147 20.4359C116.562 20.5599 116.04 20.6219 115.579 20.6219C114.587 20.6219 113.807 20.3473 113.24 19.798C112.673 19.2309 112.389 18.4513 112.389 17.459V1.00623Z" fill="#737B73"/>
<path d="M97.3425 20.4093V1.53782H109.915V4.16919H100.319V9.80405H108.346V12.2759H100.319V20.4093H97.3425Z" fill="#737B73"/>
<path d="M79.1956 13.472C79.1956 12.143 79.4614 10.9381 79.993 9.85721C80.5423 8.75859 81.2865 7.89032 82.2257 7.25242C83.1648 6.59679 84.2457 6.26897 85.4684 6.26897C86.5316 6.26897 87.4884 6.54363 88.339 7.09294C89.2072 7.64225 89.8806 8.32446 90.359 9.13956V1.00623H93.2828V17.1134C93.2828 17.4501 93.3448 17.6893 93.4688 17.8311C93.5929 17.9728 93.7966 18.0526 94.0802 18.0703V20.4093C93.5308 20.4979 93.1056 20.5422 92.8043 20.5422C92.255 20.5422 91.7855 20.3827 91.3956 20.0638C91.0235 19.7448 90.8286 19.3638 90.8109 18.9208L90.7843 17.8842C90.2527 18.7702 89.5351 19.4613 88.6314 19.9574C87.7276 20.4359 86.7885 20.6751 85.8139 20.6751C84.8571 20.6751 83.9711 20.489 83.156 20.1169C82.3586 19.7448 81.6587 19.2221 81.0562 18.5487C80.4714 17.8754 80.0107 17.1046 79.6741 16.2363C79.3551 15.368 79.1956 14.4466 79.1956 13.472ZM90.359 15.4123V11.7709C90.1641 11.2039 89.8452 10.6989 89.4022 10.2559C88.9769 9.79519 88.4896 9.43194 87.9403 9.16614C87.4087 8.90035 86.8771 8.76745 86.3455 8.76745C85.7253 8.76745 85.1583 8.90035 84.6444 9.16614C84.1483 9.43194 83.7141 9.78633 83.342 10.2293C82.9876 10.6723 82.713 11.1773 82.5181 11.7444C82.3231 12.3114 82.2257 12.905 82.2257 13.5252C82.2257 14.1631 82.332 14.7656 82.5446 15.3326C82.7573 15.8819 83.0585 16.3781 83.4483 16.821C83.8559 17.2463 84.3166 17.583 84.8305 17.8311C85.3621 18.0614 85.938 18.1766 86.5581 18.1766C86.948 18.1766 87.3378 18.1057 87.7276 17.964C88.1352 17.8222 88.5162 17.6273 88.8706 17.3792C89.2427 17.1311 89.5528 16.8388 89.8009 16.5021C90.0666 16.1654 90.2527 15.8022 90.359 15.4123Z" fill="#737B73"/>
<path d="M64.0598 16.3426C64.0598 15.4566 64.3079 14.6858 64.804 14.0302C65.3179 13.3568 66.0178 12.843 66.9038 12.4886C67.7898 12.1165 68.8176 11.9304 69.987 11.9304C70.6072 11.9304 71.2363 11.9747 71.8742 12.0633C72.5298 12.1519 73.1057 12.2937 73.6019 12.4886V11.6115C73.6019 10.6369 73.3095 9.87493 72.7247 9.32562C72.14 8.77631 71.2983 8.50165 70.1997 8.50165C69.42 8.50165 68.6847 8.64341 67.9936 8.92693C67.3025 9.19272 66.5672 9.5737 65.7875 10.0698L64.804 8.10296C65.7255 7.48277 66.6469 7.02206 67.5683 6.72083C68.5075 6.41959 69.4909 6.26897 70.5186 6.26897C72.3792 6.26897 73.8411 6.76513 74.9043 7.75743C75.9852 8.73201 76.5256 10.123 76.5256 11.9304V17.1134C76.5256 17.4501 76.5788 17.6893 76.6851 17.8311C76.8091 17.9728 77.0129 18.0526 77.2964 18.0703V20.4093C77.0306 20.4624 76.7914 20.4979 76.5788 20.5156C76.3661 20.5333 76.1889 20.5422 76.0472 20.5422C75.427 20.5422 74.9574 20.3916 74.6385 20.0903C74.3195 19.7891 74.1335 19.4347 74.0803 19.0272L74.0006 18.2298C73.3981 19.0094 72.6273 19.6119 71.6881 20.0372C70.749 20.4624 69.801 20.6751 68.8441 20.6751C67.9227 20.6751 67.0987 20.489 66.3722 20.1169C65.6457 19.7271 65.0787 19.2043 64.6711 18.5487C64.2636 17.8931 64.0598 17.1577 64.0598 16.3426ZM72.9108 17.1932C73.1234 16.9628 73.2918 16.7325 73.4158 16.5021C73.5398 16.2717 73.6019 16.068 73.6019 15.8908V14.296C73.1057 14.1011 72.583 13.9593 72.0337 13.8707C71.4844 13.7644 70.9439 13.7112 70.4123 13.7112C69.3491 13.7112 68.4809 13.9239 67.8075 14.3492C67.1519 14.7744 66.8241 15.3592 66.8241 16.1034C66.8241 16.511 66.9304 16.9008 67.143 17.2729C67.3734 17.645 67.6924 17.9463 68.0999 18.1766C68.5252 18.407 69.0479 18.5221 69.6681 18.5221C70.306 18.5221 70.9173 18.3981 71.5021 18.15C72.0868 17.902 72.5564 17.583 72.9108 17.1932Z" fill="#737B73"/>
<path d="M55.5616 20.6751C54.4807 20.6751 53.4972 20.489 52.6112 20.1169C51.743 19.7271 50.9899 19.2043 50.352 18.5487C49.7141 17.8754 49.2179 17.1134 48.8635 16.2629C48.5269 15.3946 48.3585 14.4732 48.3585 13.4986C48.3585 12.1873 48.6598 10.9913 49.2622 9.91037C49.8647 8.81175 50.7064 7.93462 51.7873 7.279C52.8682 6.60565 54.1351 6.26897 55.5882 6.26897C57.0412 6.26897 58.2904 6.60565 59.3359 7.279C60.399 7.93462 61.223 8.80289 61.8078 9.88379C62.3925 10.9647 62.6849 12.1253 62.6849 13.3657C62.6849 13.5783 62.676 13.7821 62.6583 13.977C62.6406 14.1542 62.6229 14.3049 62.6051 14.4289H51.4683C51.5215 15.244 51.743 15.9616 52.1328 16.5818C52.5404 17.1843 53.0542 17.6627 53.6744 18.0171C54.2946 18.3538 54.9591 18.5221 55.6679 18.5221C56.4476 18.5221 57.1829 18.3272 57.874 17.9374C58.5828 17.5476 59.0612 17.0337 59.3093 16.3958L61.8078 17.1134C61.5065 17.7868 61.0458 18.3981 60.4256 18.9474C59.8232 19.479 59.1055 19.9043 58.2727 20.2232C57.4399 20.5245 56.5362 20.6751 55.5616 20.6751ZM51.3886 12.4886H59.7877C59.7346 11.6912 59.5042 10.9913 59.0967 10.3888C58.7068 9.76861 58.2018 9.29018 57.5816 8.95351C56.9791 8.59911 56.3058 8.42192 55.5616 8.42192C54.8351 8.42192 54.1617 8.59911 53.5415 8.95351C52.9391 9.29018 52.4429 9.76861 52.0531 10.3888C51.6632 10.9913 51.4417 11.6912 51.3886 12.4886Z" fill="#737B73"/>
<path d="M32.5031 20.4093V1.53782H40.7161C41.5667 1.53782 42.3463 1.71501 43.0551 2.06941C43.7639 2.4238 44.3752 2.89337 44.8891 3.47812C45.4207 4.06287 45.8283 4.7185 46.1118 5.44501C46.413 6.17151 46.5636 6.91574 46.5636 7.67769C46.5636 8.51051 46.413 9.3079 46.1118 10.0698C45.8105 10.8318 45.3764 11.4874 44.8094 12.0367C44.2601 12.586 43.6133 12.9847 42.8691 13.2328L47.3079 20.4093H43.9588L39.8656 13.8441H35.48V20.4093H32.5031ZM35.48 11.2128H40.6895C41.2389 11.2128 41.7261 11.0533 42.1514 10.7343C42.5767 10.4154 42.9134 9.99011 43.1614 9.45852C43.4095 8.90921 43.5336 8.3156 43.5336 7.67769C43.5336 7.02206 43.3918 6.43731 43.1083 5.92344C42.8248 5.39185 42.4527 4.96657 41.9919 4.64762C41.549 4.32867 41.0617 4.16919 40.5301 4.16919H35.48V11.2128Z" fill="#737B73"/>
<g clip-path="url(#clip0_1206_1557)">
<path d="M4.0683 0C1.82226 0 0 1.82226 0 4.0683V17.6293C0 19.8753 1.82226 21.6976 4.0683 21.6976H16.2732H17.6293C18.3794 21.6976 18.9854 21.0916 18.9854 20.3415C18.9854 19.5914 18.3794 18.9854 17.6293 18.9854V16.2732C18.3794 16.2732 18.9854 15.6672 18.9854 14.9171V1.3561C18.9854 0.606007 18.3794 0 17.6293 0H16.2732H4.0683ZM4.0683 16.2732H14.9171V18.9854H4.0683C3.3182 18.9854 2.7122 18.3794 2.7122 17.6293C2.7122 16.8792 3.3182 16.2732 4.0683 16.2732ZM5.42439 6.10244C5.42439 5.72952 5.72952 5.4244 6.10244 5.4244H14.239C14.612 5.4244 14.9171 5.72952 14.9171 6.10244C14.9171 6.47537 14.612 6.78049 14.239 6.78049H6.10244C5.72952 6.78049 5.42439 6.47537 5.42439 6.10244ZM6.10244 8.13659H14.239C14.612 8.13659 14.9171 8.44171 14.9171 8.81464C14.9171 9.18757 14.612 9.49269 14.239 9.49269H6.10244C5.72952 9.49269 5.42439 9.18757 5.42439 8.81464C5.42439 8.44171 5.72952 8.13659 6.10244 8.13659Z" fill="#737B73"/>
</g>
<defs>
<clipPath id="clip0_1206_1557">
<rect width="18.9854" height="21.6976" fill="white"/>
</clipPath>
</defs>
</svg>
