<svg width="33" height="33" viewBox="0 0 33 33" fill="none" xmlns="http://www.w3.org/2000/svg">
<path d="M28.8056 6.0245C28.7683 5.41544 28.5095 4.84104 28.078 4.40956C27.6465 3.97808 27.0721 3.71931 26.4631 3.682C24.8218 3.58575 20.6318 3.7345 17.1531 7.212L16.6993 7.66325H9.61933C9.29088 7.66216 8.96549 7.72635 8.66206 7.8521C8.35863 7.97785 8.08322 8.16264 7.85183 8.39575L3.55808 12.687C3.22937 13.0156 2.99876 13.4292 2.89213 13.8816C2.7855 14.3339 2.80707 14.8071 2.95443 15.2478C3.10179 15.6886 3.36909 16.0796 3.72634 16.3769C4.08358 16.6741 4.51662 16.8659 4.97683 16.9308L9.61933 17.5783L14.9093 22.8683L15.5581 27.5158C15.6213 27.9767 15.8126 28.4106 16.1103 28.7682C16.4079 29.1257 16.8 29.3926 17.2418 29.5383C17.4988 29.6224 17.7677 29.6646 18.0381 29.6633C18.3657 29.663 18.6901 29.5981 18.9925 29.4722C19.295 29.3463 19.5696 29.1619 19.8006 28.9295L24.0931 24.6358C24.3259 24.4042 24.5103 24.1287 24.6359 23.8253C24.7614 23.5219 24.8255 23.1966 24.8243 22.8683V15.7883L25.2743 15.3395C28.7531 11.8558 28.9018 7.66325 28.8056 6.0245ZM9.82433 10.6633H13.6993L9.79308 14.5733L6.38933 14.0983L9.82433 10.6633ZM19.2743 9.33451C20.1303 8.47151 21.1515 7.79011 22.277 7.33111C23.4025 6.87212 24.609 6.64497 25.8243 6.66325C25.8433 7.87898 25.6164 9.08601 25.1571 10.2118C24.6979 11.3376 24.0158 12.359 23.1518 13.2145L16.3243 20.0383L12.4493 16.1633L19.2743 9.33451ZM21.8243 22.6633L18.3881 26.0995L17.9131 22.6958L21.8243 18.7883V22.6633ZM12.8656 25.3658C11.7831 26.8695 9.59433 28.6633 5.32433 28.6633C4.92651 28.6633 4.54498 28.5052 4.26367 28.2239C3.98237 27.9426 3.82433 27.5611 3.82433 27.1633C3.82433 22.8945 5.61808 20.7058 7.12308 19.622C7.44644 19.4086 7.83984 19.3285 8.22089 19.3986C8.60195 19.4687 8.94109 19.6836 9.16728 19.9982C9.39347 20.3127 9.48917 20.7026 9.43433 21.0862C9.37949 21.4697 9.17836 21.8172 8.87308 22.0558C8.12308 22.5945 7.26183 23.6183 6.94558 25.5395C8.86683 25.2233 9.89058 24.3595 10.4293 23.612C10.5406 23.4434 10.6848 23.299 10.8533 23.1875C11.0218 23.076 11.211 22.9997 11.4097 22.9631C11.6084 22.9266 11.8124 22.9305 12.0096 22.9747C12.2067 23.019 12.3929 23.1026 12.5569 23.2205C12.7209 23.3385 12.8594 23.4883 12.9641 23.6611C13.0688 23.8339 13.1375 24.0261 13.1661 24.226C13.1947 24.426 13.1826 24.6297 13.1305 24.8249C13.0784 25.0201 12.9875 25.2028 12.8631 25.362L12.8656 25.3658Z" fill="#7CBE5D"/>
</svg>
