<svg width="1246" height="552" viewBox="0 0 1246 552" fill="none" xmlns="http://www.w3.org/2000/svg">
<g filter="url(#filter0_d_4_1504)">
<path fill-rule="evenodd" clip-rule="evenodd" d="M48 62C48 54.268 54.268 48 62 48H1172C1179.73 48 1186 54.268 1186 62V478C1186 485.732 1179.73 492 1172 492H62C54.268 492 48 485.732 48 478V62Z" fill="#141816"/>
</g>
<path d="M756.579 433V431.284H752.775V430.36L756.795 424.54H757.815V430.24H759.051V431.284H757.815V433H756.579ZM756.579 430.24V426.484L754.011 430.24H756.579ZM763.006 433.108C762.022 433.108 761.27 432.736 760.75 431.992C760.238 431.24 759.982 430.164 759.982 428.764C759.982 427.34 760.238 426.264 760.75 425.536C761.27 424.8 762.022 424.432 763.006 424.432C763.998 424.432 764.75 424.8 765.262 425.536C765.774 426.264 766.03 427.336 766.03 428.752C766.03 430.16 765.77 431.24 765.25 431.992C764.738 432.736 763.99 433.108 763.006 433.108ZM763.006 432.076C763.614 432.076 764.066 431.808 764.362 431.272C764.658 430.736 764.806 429.896 764.806 428.752C764.806 427.608 764.658 426.776 764.362 426.256C764.074 425.728 763.622 425.464 763.006 425.464C762.398 425.464 761.946 425.728 761.65 426.256C761.354 426.784 761.206 427.616 761.206 428.752C761.206 429.896 761.354 430.736 761.65 431.272C761.946 431.808 762.398 432.076 763.006 432.076ZM767.454 433V424.54H768.666V429.7H768.69L771.234 427.144H772.734L769.926 429.964L772.95 433H771.438L768.69 430.324H768.666V433H767.454Z" fill="#627361"/>
<path d="M842.579 433V431.284H838.775V430.36L842.795 424.54H843.815V430.24H845.051V431.284H843.815V433H842.579ZM842.579 430.24V426.484L840.011 430.24H842.579ZM849.138 433.108C848.594 433.108 848.066 433.024 847.554 432.856C847.05 432.68 846.63 432.436 846.294 432.124L846.714 431.164C847.45 431.756 848.25 432.052 849.114 432.052C849.666 432.052 850.098 431.904 850.41 431.608C850.722 431.304 850.878 430.908 850.878 430.42C850.878 429.916 850.73 429.504 850.434 429.184C850.138 428.864 849.726 428.704 849.198 428.704C848.454 428.704 847.858 429.012 847.41 429.628H846.546V424.54H851.586V425.584H847.758V428.26C848.206 427.868 848.774 427.672 849.462 427.672C849.998 427.672 850.462 427.784 850.854 428.008C851.246 428.232 851.55 428.548 851.766 428.956C851.982 429.356 852.09 429.824 852.09 430.36C852.09 430.904 851.97 431.384 851.73 431.8C851.49 432.208 851.15 432.528 850.71 432.76C850.27 432.992 849.746 433.108 849.138 433.108ZM853.454 433V424.54H854.666V429.7H854.69L857.234 427.144H858.734L855.926 429.964L858.95 433H857.438L854.69 430.324H854.666V433H853.454Z" fill="#627361"/>
<path d="M927.943 433.108C927.399 433.108 926.871 433.024 926.359 432.856C925.855 432.68 925.435 432.436 925.099 432.124L925.519 431.164C926.255 431.756 927.055 432.052 927.919 432.052C928.471 432.052 928.903 431.904 929.215 431.608C929.527 431.304 929.683 430.908 929.683 430.42C929.683 429.916 929.535 429.504 929.239 429.184C928.943 428.864 928.531 428.704 928.003 428.704C927.259 428.704 926.663 429.012 926.215 429.628H925.351V424.54H930.391V425.584H926.563V428.26C927.011 427.868 927.579 427.672 928.267 427.672C928.803 427.672 929.267 427.784 929.659 428.008C930.051 428.232 930.355 428.548 930.571 428.956C930.787 429.356 930.895 429.824 930.895 430.36C930.895 430.904 930.775 431.384 930.535 431.8C930.295 432.208 929.955 432.528 929.515 432.76C929.075 432.992 928.551 433.108 927.943 433.108ZM935.006 433.108C934.022 433.108 933.27 432.736 932.75 431.992C932.238 431.24 931.982 430.164 931.982 428.764C931.982 427.34 932.238 426.264 932.75 425.536C933.27 424.8 934.022 424.432 935.006 424.432C935.998 424.432 936.75 424.8 937.262 425.536C937.774 426.264 938.03 427.336 938.03 428.752C938.03 430.16 937.77 431.24 937.25 431.992C936.738 432.736 935.99 433.108 935.006 433.108ZM935.006 432.076C935.614 432.076 936.066 431.808 936.362 431.272C936.658 430.736 936.806 429.896 936.806 428.752C936.806 427.608 936.658 426.776 936.362 426.256C936.074 425.728 935.622 425.464 935.006 425.464C934.398 425.464 933.946 425.728 933.65 426.256C933.354 426.784 933.206 427.616 933.206 428.752C933.206 429.896 933.354 430.736 933.65 431.272C933.946 431.808 934.398 432.076 935.006 432.076ZM939.454 433V424.54H940.666V429.7H940.69L943.234 427.144H944.734L941.926 429.964L944.95 433H943.438L940.69 430.324H940.666V433H939.454Z" fill="#627361"/>
<path d="M1013.94 433.108C1013.4 433.108 1012.87 433.024 1012.36 432.856C1011.85 432.68 1011.43 432.436 1011.1 432.124L1011.52 431.164C1012.25 431.756 1013.05 432.052 1013.92 432.052C1014.47 432.052 1014.9 431.904 1015.21 431.608C1015.53 431.304 1015.68 430.908 1015.68 430.42C1015.68 429.916 1015.53 429.504 1015.24 429.184C1014.94 428.864 1014.53 428.704 1014 428.704C1013.26 428.704 1012.66 429.012 1012.21 429.628H1011.35V424.54H1016.39V425.584H1012.56V428.26C1013.01 427.868 1013.58 427.672 1014.27 427.672C1014.8 427.672 1015.27 427.784 1015.66 428.008C1016.05 428.232 1016.35 428.548 1016.57 428.956C1016.79 429.356 1016.89 429.824 1016.89 430.36C1016.89 430.904 1016.77 431.384 1016.53 431.8C1016.29 432.208 1015.95 432.528 1015.51 432.76C1015.07 432.992 1014.55 433.108 1013.94 433.108ZM1021.14 433.108C1020.59 433.108 1020.07 433.024 1019.55 432.856C1019.05 432.68 1018.63 432.436 1018.29 432.124L1018.71 431.164C1019.45 431.756 1020.25 432.052 1021.11 432.052C1021.67 432.052 1022.1 431.904 1022.41 431.608C1022.72 431.304 1022.88 430.908 1022.88 430.42C1022.88 429.916 1022.73 429.504 1022.43 429.184C1022.14 428.864 1021.73 428.704 1021.2 428.704C1020.45 428.704 1019.86 429.012 1019.41 429.628H1018.55V424.54H1023.59V425.584H1019.76V428.26C1020.21 427.868 1020.77 427.672 1021.46 427.672C1022 427.672 1022.46 427.784 1022.85 428.008C1023.25 428.232 1023.55 428.548 1023.77 428.956C1023.98 429.356 1024.09 429.824 1024.09 430.36C1024.09 430.904 1023.97 431.384 1023.73 431.8C1023.49 432.208 1023.15 432.528 1022.71 432.76C1022.27 432.992 1021.75 433.108 1021.14 433.108ZM1025.45 433V424.54H1026.67V429.7H1026.69L1029.23 427.144H1030.73L1027.93 429.964L1030.95 433H1029.44L1026.69 430.324H1026.67V433H1025.45Z" fill="#627361"/>
<path d="M1100.11 433.108C1099.09 433.108 1098.29 432.744 1097.73 432.016C1097.18 431.288 1096.91 430.268 1096.91 428.956C1096.91 427.508 1097.22 426.392 1097.84 425.608C1098.47 424.824 1099.33 424.432 1100.43 424.432C1100.87 424.432 1101.3 424.52 1101.74 424.696C1102.18 424.864 1102.55 425.104 1102.85 425.416L1102.41 426.352C1102.13 426.064 1101.81 425.848 1101.45 425.704C1101.11 425.56 1100.76 425.488 1100.41 425.488C1099.67 425.488 1099.09 425.76 1098.69 426.304C1098.3 426.84 1098.11 427.644 1098.11 428.716V429.196C1098.27 428.708 1098.54 428.328 1098.93 428.056C1099.33 427.776 1099.79 427.636 1100.31 427.636C1100.81 427.636 1101.25 427.752 1101.62 427.984C1102.01 428.216 1102.31 428.536 1102.52 428.944C1102.74 429.344 1102.85 429.804 1102.85 430.324C1102.85 430.868 1102.73 431.352 1102.5 431.776C1102.27 432.192 1101.94 432.52 1101.53 432.76C1101.12 432.992 1100.65 433.108 1100.11 433.108ZM1100.04 432.1C1100.53 432.1 1100.92 431.94 1101.23 431.62C1101.53 431.3 1101.68 430.884 1101.68 430.372C1101.68 429.86 1101.53 429.444 1101.23 429.124C1100.92 428.804 1100.53 428.644 1100.04 428.644C1099.55 428.644 1099.15 428.804 1098.85 429.124C1098.55 429.444 1098.39 429.86 1098.39 430.372C1098.39 430.884 1098.55 431.3 1098.85 431.62C1099.15 431.94 1099.55 432.1 1100.04 432.1ZM1107.01 433.108C1106.02 433.108 1105.27 432.736 1104.75 431.992C1104.24 431.24 1103.98 430.164 1103.98 428.764C1103.98 427.34 1104.24 426.264 1104.75 425.536C1105.27 424.8 1106.02 424.432 1107.01 424.432C1108 424.432 1108.75 424.8 1109.26 425.536C1109.77 426.264 1110.03 427.336 1110.03 428.752C1110.03 430.16 1109.77 431.24 1109.25 431.992C1108.74 432.736 1107.99 433.108 1107.01 433.108ZM1107.01 432.076C1107.61 432.076 1108.07 431.808 1108.36 431.272C1108.66 430.736 1108.81 429.896 1108.81 428.752C1108.81 427.608 1108.66 426.776 1108.36 426.256C1108.07 425.728 1107.62 425.464 1107.01 425.464C1106.4 425.464 1105.95 425.728 1105.65 426.256C1105.35 426.784 1105.21 427.616 1105.21 428.752C1105.21 429.896 1105.35 430.736 1105.65 431.272C1105.95 431.808 1106.4 432.076 1107.01 432.076ZM1111.45 433V424.54H1112.67V429.7H1112.69L1115.23 427.144H1116.73L1113.93 429.964L1116.95 433H1115.44L1112.69 430.324H1112.67V433H1111.45Z" fill="#627361"/>
<path d="M160.041 433.108C159.497 433.108 158.969 433.024 158.457 432.856C157.953 432.68 157.533 432.436 157.197 432.124L157.617 431.164C158.353 431.756 159.153 432.052 160.017 432.052C160.569 432.052 161.001 431.904 161.313 431.608C161.625 431.304 161.781 430.908 161.781 430.42C161.781 429.916 161.633 429.504 161.337 429.184C161.041 428.864 160.629 428.704 160.101 428.704C159.357 428.704 158.761 429.012 158.313 429.628H157.449V424.54H162.489V425.584H158.661V428.26C159.109 427.868 159.677 427.672 160.365 427.672C160.901 427.672 161.365 427.784 161.757 428.008C162.149 428.232 162.453 428.548 162.669 428.956C162.885 429.356 162.993 429.824 162.993 430.36C162.993 430.904 162.873 431.384 162.633 431.8C162.393 432.208 162.053 432.528 161.613 432.76C161.173 432.992 160.649 433.108 160.041 433.108ZM164.356 433V424.54H165.568V429.7H165.592L168.136 427.144H169.636L166.828 429.964L169.852 433H168.34L165.592 430.324H165.568V433H164.356Z" fill="#627361"/>
<path d="M237.115 433V431.956H239.035V425.98L237.535 426.916L237.031 425.992L239.395 424.54H240.271V431.956H242.071V433H237.115ZM246.506 433.108C245.522 433.108 244.77 432.736 244.25 431.992C243.738 431.24 243.482 430.164 243.482 428.764C243.482 427.34 243.738 426.264 244.25 425.536C244.77 424.8 245.522 424.432 246.506 424.432C247.498 424.432 248.25 424.8 248.762 425.536C249.274 426.264 249.53 427.336 249.53 428.752C249.53 430.16 249.27 431.24 248.75 431.992C248.238 432.736 247.49 433.108 246.506 433.108ZM246.506 432.076C247.114 432.076 247.566 431.808 247.862 431.272C248.158 430.736 248.306 429.896 248.306 428.752C248.306 427.608 248.158 426.776 247.862 426.256C247.574 425.728 247.122 425.464 246.506 425.464C245.898 425.464 245.446 425.728 245.15 426.256C244.854 426.784 244.706 427.616 244.706 428.752C244.706 429.896 244.854 430.736 245.15 431.272C245.446 431.808 245.898 432.076 246.506 432.076ZM250.954 433V424.54H252.166V429.7H252.19L254.734 427.144H256.234L253.426 429.964L256.45 433H254.938L252.19 430.324H252.166V433H250.954Z" fill="#627361"/>
<path d="M323.115 433V431.956H325.035V425.98L323.535 426.916L323.031 425.992L325.395 424.54H326.271V431.956H328.071V433H323.115ZM332.638 433.108C332.094 433.108 331.566 433.024 331.054 432.856C330.55 432.68 330.13 432.436 329.794 432.124L330.214 431.164C330.95 431.756 331.75 432.052 332.614 432.052C333.166 432.052 333.598 431.904 333.91 431.608C334.222 431.304 334.378 430.908 334.378 430.42C334.378 429.916 334.23 429.504 333.934 429.184C333.638 428.864 333.226 428.704 332.698 428.704C331.954 428.704 331.358 429.012 330.91 429.628H330.046V424.54H335.086V425.584H331.258V428.26C331.706 427.868 332.274 427.672 332.962 427.672C333.498 427.672 333.962 427.784 334.354 428.008C334.746 428.232 335.05 428.548 335.266 428.956C335.482 429.356 335.59 429.824 335.59 430.36C335.59 430.904 335.47 431.384 335.23 431.8C334.99 432.208 334.65 432.528 334.21 432.76C333.77 432.992 333.246 433.108 332.638 433.108ZM336.954 433V424.54H338.166V429.7H338.19L340.734 427.144H342.234L339.426 429.964L342.45 433H340.938L338.19 430.324H338.166V433H336.954Z" fill="#627361"/>
<path d="M408.731 433V432.076L411.551 429.052C411.943 428.628 412.223 428.244 412.391 427.9C412.567 427.556 412.655 427.208 412.655 426.856C412.655 425.944 412.119 425.488 411.047 425.488C410.231 425.488 409.499 425.796 408.851 426.412L408.407 425.464C408.727 425.152 409.135 424.904 409.631 424.72C410.127 424.528 410.643 424.432 411.179 424.432C412.051 424.432 412.719 424.632 413.183 425.032C413.655 425.432 413.891 426.004 413.891 426.748C413.891 427.252 413.767 427.744 413.519 428.224C413.279 428.704 412.899 429.216 412.379 429.76L410.291 431.956H414.227V433H408.731ZM418.506 433.108C417.522 433.108 416.77 432.736 416.25 431.992C415.738 431.24 415.482 430.164 415.482 428.764C415.482 427.34 415.738 426.264 416.25 425.536C416.77 424.8 417.522 424.432 418.506 424.432C419.498 424.432 420.25 424.8 420.762 425.536C421.274 426.264 421.53 427.336 421.53 428.752C421.53 430.16 421.27 431.24 420.75 431.992C420.238 432.736 419.49 433.108 418.506 433.108ZM418.506 432.076C419.114 432.076 419.566 431.808 419.862 431.272C420.158 430.736 420.306 429.896 420.306 428.752C420.306 427.608 420.158 426.776 419.862 426.256C419.574 425.728 419.122 425.464 418.506 425.464C417.898 425.464 417.446 425.728 417.15 426.256C416.854 426.784 416.706 427.616 416.706 428.752C416.706 429.896 416.854 430.736 417.15 431.272C417.446 431.808 417.898 432.076 418.506 432.076ZM422.954 433V424.54H424.166V429.7H424.19L426.734 427.144H428.234L425.426 429.964L428.45 433H426.938L424.19 430.324H424.166V433H422.954Z" fill="#627361"/>
<path d="M494.731 433V432.076L497.551 429.052C497.943 428.628 498.223 428.244 498.391 427.9C498.567 427.556 498.655 427.208 498.655 426.856C498.655 425.944 498.119 425.488 497.047 425.488C496.231 425.488 495.499 425.796 494.851 426.412L494.407 425.464C494.727 425.152 495.135 424.904 495.631 424.72C496.127 424.528 496.643 424.432 497.179 424.432C498.051 424.432 498.719 424.632 499.183 425.032C499.655 425.432 499.891 426.004 499.891 426.748C499.891 427.252 499.767 427.744 499.519 428.224C499.279 428.704 498.899 429.216 498.379 429.76L496.291 431.956H500.227V433H494.731ZM504.638 433.108C504.094 433.108 503.566 433.024 503.054 432.856C502.55 432.68 502.13 432.436 501.794 432.124L502.214 431.164C502.95 431.756 503.75 432.052 504.614 432.052C505.166 432.052 505.598 431.904 505.91 431.608C506.222 431.304 506.378 430.908 506.378 430.42C506.378 429.916 506.23 429.504 505.934 429.184C505.638 428.864 505.226 428.704 504.698 428.704C503.954 428.704 503.358 429.012 502.91 429.628H502.046V424.54H507.086V425.584H503.258V428.26C503.706 427.868 504.274 427.672 504.962 427.672C505.498 427.672 505.962 427.784 506.354 428.008C506.746 428.232 507.05 428.548 507.266 428.956C507.482 429.356 507.59 429.824 507.59 430.36C507.59 430.904 507.47 431.384 507.23 431.8C506.99 432.208 506.65 432.528 506.21 432.76C505.77 432.992 505.246 433.108 504.638 433.108ZM508.954 433V424.54H510.166V429.7H510.19L512.734 427.144H514.234L511.426 429.964L514.45 433H512.938L510.19 430.324H510.166V433H508.954Z" fill="#627361"/>
<path d="M669.679 433.108C669.111 433.108 668.571 433.024 668.059 432.856C667.547 432.68 667.119 432.436 666.775 432.124L667.207 431.164C667.583 431.468 667.971 431.692 668.371 431.836C668.771 431.98 669.195 432.052 669.643 432.052C670.219 432.052 670.655 431.928 670.951 431.68C671.255 431.432 671.407 431.076 671.407 430.612C671.407 430.148 671.255 429.804 670.951 429.58C670.655 429.356 670.223 429.244 669.655 429.244H668.347V428.2H669.535C670.039 428.2 670.435 428.072 670.723 427.816C671.019 427.56 671.167 427.208 671.167 426.76C671.167 426.352 671.031 426.04 670.759 425.824C670.487 425.6 670.099 425.488 669.595 425.488C668.739 425.488 667.991 425.796 667.351 426.412L666.919 425.464C667.247 425.136 667.655 424.884 668.143 424.708C668.639 424.524 669.155 424.432 669.691 424.432C670.539 424.432 671.199 424.628 671.671 425.02C672.143 425.404 672.379 425.94 672.379 426.628C672.379 427.092 672.259 427.5 672.019 427.852C671.787 428.204 671.463 428.46 671.047 428.62C671.551 428.748 671.939 428.996 672.211 429.364C672.483 429.724 672.619 430.168 672.619 430.696C672.619 431.44 672.355 432.028 671.827 432.46C671.307 432.892 670.591 433.108 669.679 433.108ZM677.138 433.108C676.594 433.108 676.066 433.024 675.554 432.856C675.05 432.68 674.63 432.436 674.294 432.124L674.714 431.164C675.45 431.756 676.25 432.052 677.114 432.052C677.666 432.052 678.098 431.904 678.41 431.608C678.722 431.304 678.878 430.908 678.878 430.42C678.878 429.916 678.73 429.504 678.434 429.184C678.138 428.864 677.726 428.704 677.198 428.704C676.454 428.704 675.858 429.012 675.41 429.628H674.546V424.54H679.586V425.584H675.758V428.26C676.206 427.868 676.774 427.672 677.462 427.672C677.998 427.672 678.462 427.784 678.854 428.008C679.246 428.232 679.55 428.548 679.766 428.956C679.982 429.356 680.09 429.824 680.09 430.36C680.09 430.904 679.97 431.384 679.73 431.8C679.49 432.208 679.15 432.528 678.71 432.76C678.27 432.992 677.746 433.108 677.138 433.108ZM681.454 433V424.54H682.666V429.7H682.69L685.234 427.144H686.734L683.926 429.964L686.95 433H685.438L682.69 430.324H682.666V433H681.454Z" fill="#627361"/>
<path d="M583.179 433.108C582.611 433.108 582.071 433.024 581.559 432.856C581.047 432.68 580.619 432.436 580.275 432.124L580.707 431.164C581.083 431.468 581.471 431.692 581.871 431.836C582.271 431.98 582.695 432.052 583.143 432.052C583.719 432.052 584.155 431.928 584.451 431.68C584.755 431.432 584.907 431.076 584.907 430.612C584.907 430.148 584.755 429.804 584.451 429.58C584.155 429.356 583.723 429.244 583.155 429.244H581.847V428.2H583.035C583.539 428.2 583.935 428.072 584.223 427.816C584.519 427.56 584.667 427.208 584.667 426.76C584.667 426.352 584.531 426.04 584.259 425.824C583.987 425.6 583.599 425.488 583.095 425.488C582.239 425.488 581.491 425.796 580.851 426.412L580.419 425.464C580.747 425.136 581.155 424.884 581.643 424.708C582.139 424.524 582.655 424.432 583.191 424.432C584.039 424.432 584.699 424.628 585.171 425.02C585.643 425.404 585.879 425.94 585.879 426.628C585.879 427.092 585.759 427.5 585.519 427.852C585.287 428.204 584.963 428.46 584.547 428.62C585.051 428.748 585.439 428.996 585.711 429.364C585.983 429.724 586.119 430.168 586.119 430.696C586.119 431.44 585.855 432.028 585.327 432.46C584.807 432.892 584.091 433.108 583.179 433.108ZM590.506 433.108C589.522 433.108 588.77 432.736 588.25 431.992C587.738 431.24 587.482 430.164 587.482 428.764C587.482 427.34 587.738 426.264 588.25 425.536C588.77 424.8 589.522 424.432 590.506 424.432C591.498 424.432 592.25 424.8 592.762 425.536C593.274 426.264 593.53 427.336 593.53 428.752C593.53 430.16 593.27 431.24 592.75 431.992C592.238 432.736 591.49 433.108 590.506 433.108ZM590.506 432.076C591.114 432.076 591.566 431.808 591.862 431.272C592.158 430.736 592.306 429.896 592.306 428.752C592.306 427.608 592.158 426.776 591.862 426.256C591.574 425.728 591.122 425.464 590.506 425.464C589.898 425.464 589.446 425.728 589.15 426.256C588.854 426.784 588.706 427.616 588.706 428.752C588.706 429.896 588.854 430.736 589.15 431.272C589.446 431.808 589.898 432.076 590.506 432.076ZM594.954 433V424.54H596.166V429.7H596.19L598.734 427.144H600.234L597.426 429.964L600.45 433H598.938L596.19 430.324H596.166V433H594.954Z" fill="#627361"/>
<path d="M81.02 400V399.076L83.84 396.052C84.232 395.628 84.512 395.244 84.68 394.9C84.856 394.556 84.944 394.208 84.944 393.856C84.944 392.944 84.408 392.488 83.336 392.488C82.52 392.488 81.788 392.796 81.14 393.412L80.696 392.464C81.016 392.152 81.424 391.904 81.92 391.72C82.416 391.528 82.932 391.432 83.468 391.432C84.34 391.432 85.008 391.632 85.472 392.032C85.944 392.432 86.18 393.004 86.18 393.748C86.18 394.252 86.056 394.744 85.808 395.224C85.568 395.704 85.188 396.216 84.668 396.76L82.58 398.956H86.516V400H81.02ZM90.7953 400.108C89.8113 400.108 89.0593 399.736 88.5393 398.992C88.0273 398.24 87.7713 397.164 87.7713 395.764C87.7713 394.34 88.0273 393.264 88.5393 392.536C89.0593 391.8 89.8113 391.432 90.7953 391.432C91.7873 391.432 92.5393 391.8 93.0513 392.536C93.5633 393.264 93.8193 394.336 93.8193 395.752C93.8193 397.16 93.5593 398.24 93.0393 398.992C92.5273 399.736 91.7793 400.108 90.7953 400.108ZM90.7953 399.076C91.4033 399.076 91.8553 398.808 92.1513 398.272C92.4473 397.736 92.5953 396.896 92.5953 395.752C92.5953 394.608 92.4473 393.776 92.1513 393.256C91.8633 392.728 91.4113 392.464 90.7953 392.464C90.1873 392.464 89.7353 392.728 89.4393 393.256C89.1433 393.784 88.9953 394.616 88.9953 395.752C88.9953 396.896 89.1433 397.736 89.4393 398.272C89.7353 398.808 90.1873 399.076 90.7953 399.076ZM97.9426 400.312L97.1266 399.832L102.083 391.228L102.899 391.708L97.9426 400.312ZM97.0786 396.604C96.4226 396.604 95.9106 396.376 95.5426 395.92C95.1746 395.456 94.9906 394.82 94.9906 394.012C94.9906 393.204 95.1746 392.572 95.5426 392.116C95.9186 391.66 96.4306 391.432 97.0786 391.432C97.7266 391.432 98.2346 391.66 98.6026 392.116C98.9786 392.572 99.1666 393.204 99.1666 394.012C99.1666 394.82 98.9826 395.456 98.6146 395.92C98.2466 396.376 97.7346 396.604 97.0786 396.604ZM97.0786 395.752C97.4146 395.752 97.6746 395.608 97.8586 395.32C98.0506 395.032 98.1466 394.596 98.1466 394.012C98.1466 393.428 98.0506 392.992 97.8586 392.704C97.6746 392.416 97.4146 392.272 97.0786 392.272C96.7426 392.272 96.4786 392.416 96.2866 392.704C96.1026 392.992 96.0106 393.428 96.0106 394.012C96.0106 394.604 96.1026 395.044 96.2866 395.332C96.4786 395.612 96.7426 395.752 97.0786 395.752ZM102.947 400.108C102.299 400.108 101.791 399.88 101.423 399.424C101.055 398.968 100.871 398.332 100.871 397.516C100.871 396.716 101.055 396.088 101.423 395.632C101.791 395.168 102.299 394.936 102.947 394.936C103.603 394.936 104.115 395.168 104.483 395.632C104.851 396.088 105.035 396.716 105.035 397.516C105.035 398.332 104.851 398.968 104.483 399.424C104.115 399.88 103.603 400.108 102.947 400.108ZM102.947 399.268C103.283 399.268 103.543 399.124 103.727 398.836C103.919 398.548 104.015 398.108 104.015 397.516C104.015 396.94 103.919 396.508 103.727 396.22C103.543 395.932 103.283 395.788 102.947 395.788C102.611 395.788 102.347 395.932 102.155 396.22C101.971 396.5 101.879 396.932 101.879 397.516C101.879 398.108 101.971 398.548 102.155 398.836C102.347 399.124 102.611 399.268 102.947 399.268Z" fill="#627361"/>
<g opacity="0.7">
<path fill-rule="evenodd" clip-rule="evenodd" d="M156 396.5H1153.16Z" fill="white"/>
<path d="M156 396.5H1153.16" stroke="#737B73" stroke-linecap="square"/>
<path fill-rule="evenodd" clip-rule="evenodd" d="M156 337.5H1153.16Z" fill="white"/>
<path d="M156 337.5H1153.16" stroke="#737B73" stroke-linecap="square"/>
<path fill-rule="evenodd" clip-rule="evenodd" d="M156 278.5H1153.16Z" fill="white"/>
<path d="M156 278.5H1153.16" stroke="#737B73" stroke-linecap="square"/>
<path fill-rule="evenodd" clip-rule="evenodd" d="M156 219.5H1153.16Z" fill="white"/>
<path d="M156 219.5H1153.16" stroke="#737B73" stroke-linecap="square"/>
<path fill-rule="evenodd" clip-rule="evenodd" d="M156 160.5H1153.16Z" fill="white"/>
<path d="M156 160.5H1153.16" stroke="#737B73" stroke-linecap="square"/>
</g>
<path d="M84.368 341V339.284H80.564V338.36L84.584 332.54H85.604V338.24H86.84V339.284H85.604V341H84.368ZM84.368 338.24V334.484L81.8 338.24H84.368ZM90.7953 341.108C89.8113 341.108 89.0593 340.736 88.5393 339.992C88.0273 339.24 87.7713 338.164 87.7713 336.764C87.7713 335.34 88.0273 334.264 88.5393 333.536C89.0593 332.8 89.8113 332.432 90.7953 332.432C91.7873 332.432 92.5393 332.8 93.0513 333.536C93.5633 334.264 93.8193 335.336 93.8193 336.752C93.8193 338.16 93.5593 339.24 93.0393 339.992C92.5273 340.736 91.7793 341.108 90.7953 341.108ZM90.7953 340.076C91.4033 340.076 91.8553 339.808 92.1513 339.272C92.4473 338.736 92.5953 337.896 92.5953 336.752C92.5953 335.608 92.4473 334.776 92.1513 334.256C91.8633 333.728 91.4113 333.464 90.7953 333.464C90.1873 333.464 89.7353 333.728 89.4393 334.256C89.1433 334.784 88.9953 335.616 88.9953 336.752C88.9953 337.896 89.1433 338.736 89.4393 339.272C89.7353 339.808 90.1873 340.076 90.7953 340.076ZM97.9426 341.312L97.1266 340.832L102.083 332.228L102.899 332.708L97.9426 341.312ZM97.0786 337.604C96.4226 337.604 95.9106 337.376 95.5426 336.92C95.1746 336.456 94.9906 335.82 94.9906 335.012C94.9906 334.204 95.1746 333.572 95.5426 333.116C95.9186 332.66 96.4306 332.432 97.0786 332.432C97.7266 332.432 98.2346 332.66 98.6026 333.116C98.9786 333.572 99.1666 334.204 99.1666 335.012C99.1666 335.82 98.9826 336.456 98.6146 336.92C98.2466 337.376 97.7346 337.604 97.0786 337.604ZM97.0786 336.752C97.4146 336.752 97.6746 336.608 97.8586 336.32C98.0506 336.032 98.1466 335.596 98.1466 335.012C98.1466 334.428 98.0506 333.992 97.8586 333.704C97.6746 333.416 97.4146 333.272 97.0786 333.272C96.7426 333.272 96.4786 333.416 96.2866 333.704C96.1026 333.992 96.0106 334.428 96.0106 335.012C96.0106 335.604 96.1026 336.044 96.2866 336.332C96.4786 336.612 96.7426 336.752 97.0786 336.752ZM102.947 341.108C102.299 341.108 101.791 340.88 101.423 340.424C101.055 339.968 100.871 339.332 100.871 338.516C100.871 337.716 101.055 337.088 101.423 336.632C101.791 336.168 102.299 335.936 102.947 335.936C103.603 335.936 104.115 336.168 104.483 336.632C104.851 337.088 105.035 337.716 105.035 338.516C105.035 339.332 104.851 339.968 104.483 340.424C104.115 340.88 103.603 341.108 102.947 341.108ZM102.947 340.268C103.283 340.268 103.543 340.124 103.727 339.836C103.919 339.548 104.015 339.108 104.015 338.516C104.015 337.94 103.919 337.508 103.727 337.22C103.543 336.932 103.283 336.788 102.947 336.788C102.611 336.788 102.347 336.932 102.155 337.22C101.971 337.5 101.879 337.932 101.879 338.516C101.879 339.108 101.971 339.548 102.155 339.836C102.347 340.124 102.611 340.268 102.947 340.268Z" fill="#627361"/>
<path d="M83.9 282.108C82.876 282.108 82.084 281.744 81.524 281.016C80.972 280.288 80.696 279.268 80.696 277.956C80.696 276.508 81.008 275.392 81.632 274.608C82.256 273.824 83.12 273.432 84.224 273.432C84.656 273.432 85.092 273.52 85.532 273.696C85.972 273.864 86.34 274.104 86.636 274.416L86.204 275.352C85.916 275.064 85.596 274.848 85.244 274.704C84.9 274.56 84.552 274.488 84.2 274.488C83.456 274.488 82.884 274.76 82.484 275.304C82.092 275.84 81.896 276.644 81.896 277.716V278.196C82.056 277.708 82.332 277.328 82.724 277.056C83.124 276.776 83.584 276.636 84.104 276.636C84.6 276.636 85.036 276.752 85.412 276.984C85.796 277.216 86.096 277.536 86.312 277.944C86.528 278.344 86.636 278.804 86.636 279.324C86.636 279.868 86.52 280.352 86.288 280.776C86.056 281.192 85.732 281.52 85.316 281.76C84.908 281.992 84.436 282.108 83.9 282.108ZM83.828 281.1C84.316 281.1 84.712 280.94 85.016 280.62C85.32 280.3 85.472 279.884 85.472 279.372C85.472 278.86 85.32 278.444 85.016 278.124C84.712 277.804 84.316 277.644 83.828 277.644C83.34 277.644 82.944 277.804 82.64 278.124C82.336 278.444 82.184 278.86 82.184 279.372C82.184 279.884 82.336 280.3 82.64 280.62C82.944 280.94 83.34 281.1 83.828 281.1ZM90.7953 282.108C89.8113 282.108 89.0593 281.736 88.5393 280.992C88.0273 280.24 87.7713 279.164 87.7713 277.764C87.7713 276.34 88.0273 275.264 88.5393 274.536C89.0593 273.8 89.8113 273.432 90.7953 273.432C91.7873 273.432 92.5393 273.8 93.0513 274.536C93.5633 275.264 93.8193 276.336 93.8193 277.752C93.8193 279.16 93.5593 280.24 93.0393 280.992C92.5273 281.736 91.7793 282.108 90.7953 282.108ZM90.7953 281.076C91.4033 281.076 91.8553 280.808 92.1513 280.272C92.4473 279.736 92.5953 278.896 92.5953 277.752C92.5953 276.608 92.4473 275.776 92.1513 275.256C91.8633 274.728 91.4113 274.464 90.7953 274.464C90.1873 274.464 89.7353 274.728 89.4393 275.256C89.1433 275.784 88.9953 276.616 88.9953 277.752C88.9953 278.896 89.1433 279.736 89.4393 280.272C89.7353 280.808 90.1873 281.076 90.7953 281.076ZM97.9426 282.312L97.1266 281.832L102.083 273.228L102.899 273.708L97.9426 282.312ZM97.0786 278.604C96.4226 278.604 95.9106 278.376 95.5426 277.92C95.1746 277.456 94.9906 276.82 94.9906 276.012C94.9906 275.204 95.1746 274.572 95.5426 274.116C95.9186 273.66 96.4306 273.432 97.0786 273.432C97.7266 273.432 98.2346 273.66 98.6026 274.116C98.9786 274.572 99.1666 275.204 99.1666 276.012C99.1666 276.82 98.9826 277.456 98.6146 277.92C98.2466 278.376 97.7346 278.604 97.0786 278.604ZM97.0786 277.752C97.4146 277.752 97.6746 277.608 97.8586 277.32C98.0506 277.032 98.1466 276.596 98.1466 276.012C98.1466 275.428 98.0506 274.992 97.8586 274.704C97.6746 274.416 97.4146 274.272 97.0786 274.272C96.7426 274.272 96.4786 274.416 96.2866 274.704C96.1026 274.992 96.0106 275.428 96.0106 276.012C96.0106 276.604 96.1026 277.044 96.2866 277.332C96.4786 277.612 96.7426 277.752 97.0786 277.752ZM102.947 282.108C102.299 282.108 101.791 281.88 101.423 281.424C101.055 280.968 100.871 280.332 100.871 279.516C100.871 278.716 101.055 278.088 101.423 277.632C101.791 277.168 102.299 276.936 102.947 276.936C103.603 276.936 104.115 277.168 104.483 277.632C104.851 278.088 105.035 278.716 105.035 279.516C105.035 280.332 104.851 280.968 104.483 281.424C104.115 281.88 103.603 282.108 102.947 282.108ZM102.947 281.268C103.283 281.268 103.543 281.124 103.727 280.836C103.919 280.548 104.015 280.108 104.015 279.516C104.015 278.94 103.919 278.508 103.727 278.22C103.543 277.932 103.283 277.788 102.947 277.788C102.611 277.788 102.347 277.932 102.155 278.22C101.971 278.5 101.879 278.932 101.879 279.516C101.879 280.108 101.971 280.548 102.155 280.836C102.347 281.124 102.611 281.268 102.947 281.268Z" fill="#627361"/>
<path d="M83.6 223.108C82.632 223.108 81.876 222.9 81.332 222.484C80.796 222.068 80.528 221.488 80.528 220.744C80.528 220.224 80.664 219.784 80.936 219.424C81.216 219.056 81.58 218.804 82.028 218.668C81.628 218.5 81.312 218.244 81.08 217.9C80.848 217.548 80.732 217.144 80.732 216.688C80.732 215.984 80.992 215.432 81.512 215.032C82.032 214.632 82.728 214.432 83.6 214.432C84.48 214.432 85.18 214.632 85.7 215.032C86.22 215.432 86.48 215.984 86.48 216.688C86.48 217.144 86.36 217.548 86.12 217.9C85.888 218.252 85.572 218.508 85.172 218.668C85.628 218.804 85.992 219.056 86.264 219.424C86.536 219.784 86.672 220.224 86.672 220.744C86.672 221.488 86.4 222.068 85.856 222.484C85.32 222.9 84.568 223.108 83.6 223.108ZM83.6 218.224C84.136 218.224 84.552 218.1 84.848 217.852C85.152 217.596 85.304 217.248 85.304 216.808C85.304 216.376 85.152 216.036 84.848 215.788C84.552 215.54 84.136 215.416 83.6 215.416C83.064 215.416 82.648 215.54 82.352 215.788C82.056 216.036 81.908 216.376 81.908 216.808C81.908 217.248 82.056 217.596 82.352 217.852C82.648 218.1 83.064 218.224 83.6 218.224ZM83.6 222.124C84.872 222.124 85.508 221.636 85.508 220.66C85.508 219.692 84.872 219.208 83.6 219.208C82.976 219.208 82.5 219.328 82.172 219.568C81.852 219.808 81.692 220.172 81.692 220.66C81.692 221.636 82.328 222.124 83.6 222.124ZM90.7953 223.108C89.8113 223.108 89.0593 222.736 88.5393 221.992C88.0273 221.24 87.7713 220.164 87.7713 218.764C87.7713 217.34 88.0273 216.264 88.5393 215.536C89.0593 214.8 89.8113 214.432 90.7953 214.432C91.7873 214.432 92.5393 214.8 93.0513 215.536C93.5633 216.264 93.8193 217.336 93.8193 218.752C93.8193 220.16 93.5593 221.24 93.0393 221.992C92.5273 222.736 91.7793 223.108 90.7953 223.108ZM90.7953 222.076C91.4033 222.076 91.8553 221.808 92.1513 221.272C92.4473 220.736 92.5953 219.896 92.5953 218.752C92.5953 217.608 92.4473 216.776 92.1513 216.256C91.8633 215.728 91.4113 215.464 90.7953 215.464C90.1873 215.464 89.7353 215.728 89.4393 216.256C89.1433 216.784 88.9953 217.616 88.9953 218.752C88.9953 219.896 89.1433 220.736 89.4393 221.272C89.7353 221.808 90.1873 222.076 90.7953 222.076ZM97.9426 223.312L97.1266 222.832L102.083 214.228L102.899 214.708L97.9426 223.312ZM97.0786 219.604C96.4226 219.604 95.9106 219.376 95.5426 218.92C95.1746 218.456 94.9906 217.82 94.9906 217.012C94.9906 216.204 95.1746 215.572 95.5426 215.116C95.9186 214.66 96.4306 214.432 97.0786 214.432C97.7266 214.432 98.2346 214.66 98.6026 215.116C98.9786 215.572 99.1666 216.204 99.1666 217.012C99.1666 217.82 98.9826 218.456 98.6146 218.92C98.2466 219.376 97.7346 219.604 97.0786 219.604ZM97.0786 218.752C97.4146 218.752 97.6746 218.608 97.8586 218.32C98.0506 218.032 98.1466 217.596 98.1466 217.012C98.1466 216.428 98.0506 215.992 97.8586 215.704C97.6746 215.416 97.4146 215.272 97.0786 215.272C96.7426 215.272 96.4786 215.416 96.2866 215.704C96.1026 215.992 96.0106 216.428 96.0106 217.012C96.0106 217.604 96.1026 218.044 96.2866 218.332C96.4786 218.612 96.7426 218.752 97.0786 218.752ZM102.947 223.108C102.299 223.108 101.791 222.88 101.423 222.424C101.055 221.968 100.871 221.332 100.871 220.516C100.871 219.716 101.055 219.088 101.423 218.632C101.791 218.168 102.299 217.936 102.947 217.936C103.603 217.936 104.115 218.168 104.483 218.632C104.851 219.088 105.035 219.716 105.035 220.516C105.035 221.332 104.851 221.968 104.483 222.424C104.115 222.88 103.603 223.108 102.947 223.108ZM102.947 222.268C103.283 222.268 103.543 222.124 103.727 221.836C103.919 221.548 104.015 221.108 104.015 220.516C104.015 219.94 103.919 219.508 103.727 219.22C103.543 218.932 103.283 218.788 102.947 218.788C102.611 218.788 102.347 218.932 102.155 219.22C101.971 219.5 101.879 219.932 101.879 220.516C101.879 221.108 101.971 221.548 102.155 221.836C102.347 222.124 102.611 222.268 102.947 222.268Z" fill="#627361"/>
<path d="M81.404 164V162.956H83.324V156.98L81.824 157.916L81.32 156.992L83.684 155.54H84.56V162.956H86.36V164H81.404ZM90.7953 164.108C89.8113 164.108 89.0593 163.736 88.5393 162.992C88.0273 162.24 87.7713 161.164 87.7713 159.764C87.7713 158.34 88.0273 157.264 88.5393 156.536C89.0593 155.8 89.8113 155.432 90.7953 155.432C91.7873 155.432 92.5393 155.8 93.0513 156.536C93.5633 157.264 93.8193 158.336 93.8193 159.752C93.8193 161.16 93.5593 162.24 93.0393 162.992C92.5273 163.736 91.7793 164.108 90.7953 164.108ZM90.7953 163.076C91.4033 163.076 91.8553 162.808 92.1513 162.272C92.4473 161.736 92.5953 160.896 92.5953 159.752C92.5953 158.608 92.4473 157.776 92.1513 157.256C91.8633 156.728 91.4113 156.464 90.7953 156.464C90.1873 156.464 89.7353 156.728 89.4393 157.256C89.1433 157.784 88.9953 158.616 88.9953 159.752C88.9953 160.896 89.1433 161.736 89.4393 162.272C89.7353 162.808 90.1873 163.076 90.7953 163.076ZM97.9906 164.108C97.0066 164.108 96.2546 163.736 95.7346 162.992C95.2226 162.24 94.9666 161.164 94.9666 159.764C94.9666 158.34 95.2226 157.264 95.7346 156.536C96.2546 155.8 97.0066 155.432 97.9906 155.432C98.9826 155.432 99.7346 155.8 100.247 156.536C100.759 157.264 101.015 158.336 101.015 159.752C101.015 161.16 100.755 162.24 100.235 162.992C99.7226 163.736 98.9746 164.108 97.9906 164.108ZM97.9906 163.076C98.5986 163.076 99.0506 162.808 99.3466 162.272C99.6426 161.736 99.7906 160.896 99.7906 159.752C99.7906 158.608 99.6426 157.776 99.3466 157.256C99.0586 156.728 98.6066 156.464 97.9906 156.464C97.3826 156.464 96.9306 156.728 96.6346 157.256C96.3386 157.784 96.1906 158.616 96.1906 159.752C96.1906 160.896 96.3386 161.736 96.6346 162.272C96.9306 162.808 97.3826 163.076 97.9906 163.076ZM105.138 164.312L104.322 163.832L109.278 155.228L110.094 155.708L105.138 164.312ZM104.274 160.604C103.618 160.604 103.106 160.376 102.738 159.92C102.37 159.456 102.186 158.82 102.186 158.012C102.186 157.204 102.37 156.572 102.738 156.116C103.114 155.66 103.626 155.432 104.274 155.432C104.922 155.432 105.43 155.66 105.798 156.116C106.174 156.572 106.362 157.204 106.362 158.012C106.362 158.82 106.178 159.456 105.81 159.92C105.442 160.376 104.93 160.604 104.274 160.604ZM104.274 159.752C104.61 159.752 104.87 159.608 105.054 159.32C105.246 159.032 105.342 158.596 105.342 158.012C105.342 157.428 105.246 156.992 105.054 156.704C104.87 156.416 104.61 156.272 104.274 156.272C103.938 156.272 103.674 156.416 103.482 156.704C103.298 156.992 103.206 157.428 103.206 158.012C103.206 158.604 103.298 159.044 103.482 159.332C103.674 159.612 103.938 159.752 104.274 159.752ZM110.142 164.108C109.494 164.108 108.986 163.88 108.618 163.424C108.25 162.968 108.066 162.332 108.066 161.516C108.066 160.716 108.25 160.088 108.618 159.632C108.986 159.168 109.494 158.936 110.142 158.936C110.798 158.936 111.31 159.168 111.678 159.632C112.046 160.088 112.23 160.716 112.23 161.516C112.23 162.332 112.046 162.968 111.678 163.424C111.31 163.88 110.798 164.108 110.142 164.108ZM110.142 163.268C110.478 163.268 110.738 163.124 110.922 162.836C111.114 162.548 111.21 162.108 111.21 161.516C111.21 160.94 111.114 160.508 110.922 160.22C110.738 159.932 110.478 159.788 110.142 159.788C109.806 159.788 109.542 159.932 109.35 160.22C109.166 160.5 109.074 160.932 109.074 161.516C109.074 162.108 109.166 162.548 109.35 162.836C109.542 163.124 109.806 163.268 110.142 163.268Z" fill="#627361"/>
<path fill-rule="evenodd" clip-rule="evenodd" d="M156 400L162.317 378.386L184.463 377.458L199.943 369.351L216.126 368.905L227.92 356.984L238.293 325.994L244.942 314.906L262.701 338.034L277.144 341.554L287.712 334.839L300.463 305.241L337.024 365.254L352.076 339.406L369.334 352.38L378.636 332.599L380.45 323.109L394.459 313.417L401.694 300.247L409.69 318.644L408.367 330.724L415.743 332.511L421.467 327.133L436.404 205.643L450.309 353.636L462.692 337.723V328.635L473.276 319.244L478.232 312.046L487.352 301.22L509.034 312.508L519.827 318.644L528.54 314.672L543.737 332.524L565.843 297.438L572.31 316.571L586.171 329.808L599.607 325.568L605.883 316.568L615.929 312.503L617.195 304.776L628.658 285.777L645.488 291.173L650.62 274.286L673.698 385.061L690.151 362.909L711.832 361.36L737.813 377.082L747.906 315.754L760.568 319.206L766.527 311.998L769.884 314.3L776.183 313.598L779.782 316.699L789.781 318.722L789.959 325.584L801.911 329.934L816.845 328.972L817.63 317.485L806.376 242.312L832.602 273.132L845.725 283.487L878.56 262.311L897.089 277.368H903.018H909.705L917.84 286.812L927.721 297.438L980.501 301.22L988.984 285.777L1024.56 329.801L1045.03 291.173L1066.07 304.73L1085.93 287.682L1107.9 301.22L1124.5 310.053L1133.83 307.353L1144.12 300.247L1154 291.173V400H238.606H156Z" fill="url(#paint0_linear_4_1504)"/>
<path d="M156 401L162.383 378.573L184.525 377.643L200.003 369.525L216.184 369.079L227.975 357.142L238.346 326.109L245.132 315.006L262.751 338.166L277.191 341.69L287.758 334.967L300.311 304.862L337.061 365.423L352.111 339.539L369.366 352.531L378.666 332.723L380.481 323.22L394.487 313.515L401.721 300.326L409.716 318.749L408.393 330.846L415.768 332.635L421.49 327.25L436.404 205.643L450.328 353.79L462.708 337.854V328.754L473.292 319.35L478.246 312.142L487.365 301.301L509.043 312.605L519.835 318.749L528.546 314.772L543.741 332.648L565.843 297.514L572.309 316.673L586.168 329.928L599.602 325.683L605.876 316.671L615.921 312.6L617.187 304.862L628.648 285.837L645.475 291.24L650.702 276.166L673.68 385.257L690.13 363.075L711.808 361.523L737.785 377.267L747.876 315.855L760.536 319.312L766.494 312.094L769.85 314.4L776.148 313.696L779.747 316.801L789.744 318.827L789.922 325.699L801.872 330.055L816.804 329.091L817.589 317.588L806.376 242.312L832.558 273.174L845.679 283.544L878.509 262.339L896.766 277.417H909.376L927.64 297.514L952.418 301.301H980.141L988.621 285.837L1008.05 310.026L1024.18 330.846L1045.13 291.24C1045.13 291.24 1064.3 305.894 1066.5 304.862C1068.71 303.83 1087.03 287.649 1087.03 287.649L1104.8 300.326L1126.04 312.142L1143.69 301.301L1152 291.24H1149.61H1150.89" stroke="#7CBE5D" stroke-width="1.5"/>
<path fill-rule="evenodd" clip-rule="evenodd" d="M396 169C396 167.895 396.895 167 398 167H474C475.105 167 476 167.895 476 169V187C476 188.105 475.105 189 474 189H442L436 194.977L430 189H398C396.895 189 396 188.105 396 187V169Z" fill="#7CBE5D"/>
<path d="M409.912 181.12C408.864 181.12 408.052 180.752 407.476 180.016C406.908 179.28 406.624 178.248 406.624 176.92C406.624 175.488 406.944 174.38 407.584 173.596C408.232 172.812 409.124 172.42 410.26 172.42C410.708 172.42 411.152 172.504 411.592 172.672C412.032 172.832 412.408 173.064 412.72 173.368L412.216 174.52C411.92 174.248 411.604 174.048 411.268 173.92C410.932 173.784 410.588 173.716 410.236 173.716C409.54 173.716 409.008 173.96 408.64 174.448C408.272 174.936 408.088 175.664 408.088 176.632V176.98C408.256 176.54 408.528 176.196 408.904 175.948C409.28 175.7 409.712 175.576 410.2 175.576C410.688 175.576 411.12 175.692 411.496 175.924C411.872 176.156 412.168 176.476 412.384 176.884C412.6 177.292 412.708 177.76 412.708 178.288C412.708 178.832 412.588 179.32 412.348 179.752C412.116 180.176 411.788 180.512 411.364 180.76C410.948 181 410.464 181.12 409.912 181.12ZM409.828 179.896C410.26 179.896 410.608 179.756 410.872 179.476C411.144 179.188 411.28 178.812 411.28 178.348C411.28 177.884 411.144 177.508 410.872 177.22C410.608 176.932 410.26 176.788 409.828 176.788C409.396 176.788 409.044 176.932 408.772 177.22C408.508 177.508 408.376 177.884 408.376 178.348C408.376 178.812 408.508 179.188 408.772 179.476C409.044 179.756 409.396 179.896 409.828 179.896ZM417.383 181V179.392H413.699V178.264L417.647 172.54H418.919V178.12H420.107V179.392H418.919V181H417.383ZM417.383 178.12V174.892L415.175 178.12H417.383ZM421.771 182.596L421.159 182.116C421.359 181.916 421.507 181.724 421.603 181.54C421.707 181.364 421.779 181.184 421.819 181H421.039V179.332H422.719V180.436C422.719 180.844 422.647 181.216 422.503 181.552C422.367 181.896 422.123 182.244 421.771 182.596ZM426.799 181.12C426.223 181.12 425.671 181.036 425.143 180.868C424.623 180.692 424.191 180.456 423.847 180.16L424.351 178.984C425.071 179.544 425.871 179.824 426.751 179.824C427.831 179.824 428.371 179.4 428.371 178.552C428.371 178.152 428.235 177.856 427.963 177.664C427.699 177.464 427.311 177.364 426.799 177.364H425.443V176.092H426.655C427.103 176.092 427.459 175.984 427.723 175.768C427.987 175.544 428.119 175.236 428.119 174.844C428.119 174.476 427.995 174.196 427.747 174.004C427.507 173.812 427.155 173.716 426.691 173.716C425.859 173.716 425.127 174.004 424.495 174.58L423.991 173.428C424.327 173.108 424.747 172.86 425.251 172.684C425.755 172.508 426.279 172.42 426.823 172.42C427.703 172.42 428.387 172.62 428.875 173.02C429.363 173.412 429.607 173.96 429.607 174.664C429.607 175.12 429.491 175.52 429.259 175.864C429.027 176.208 428.711 176.456 428.311 176.608C428.799 176.744 429.179 176.996 429.451 177.364C429.723 177.724 429.859 178.164 429.859 178.684C429.859 179.436 429.587 180.032 429.043 180.472C428.499 180.904 427.751 181.12 426.799 181.12ZM434.475 181.12C433.427 181.12 432.615 180.752 432.039 180.016C431.471 179.28 431.187 178.248 431.187 176.92C431.187 175.488 431.507 174.38 432.146 173.596C432.795 172.812 433.687 172.42 434.823 172.42C435.271 172.42 435.715 172.504 436.155 172.672C436.595 172.832 436.971 173.064 437.283 173.368L436.779 174.52C436.483 174.248 436.167 174.048 435.831 173.92C435.495 173.784 435.151 173.716 434.799 173.716C434.103 173.716 433.571 173.96 433.203 174.448C432.835 174.936 432.651 175.664 432.651 176.632V176.98C432.819 176.54 433.091 176.196 433.467 175.948C433.843 175.7 434.275 175.576 434.763 175.576C435.251 175.576 435.683 175.692 436.059 175.924C436.435 176.156 436.73 176.476 436.947 176.884C437.163 177.292 437.271 177.76 437.271 178.288C437.271 178.832 437.151 179.32 436.911 179.752C436.679 180.176 436.351 180.512 435.927 180.76C435.511 181 435.027 181.12 434.475 181.12ZM434.391 179.896C434.823 179.896 435.171 179.756 435.435 179.476C435.707 179.188 435.843 178.812 435.843 178.348C435.843 177.884 435.707 177.508 435.435 177.22C435.171 176.932 434.823 176.788 434.391 176.788C433.959 176.788 433.607 176.932 433.335 177.22C433.071 177.508 432.939 177.884 432.939 178.348C432.939 178.812 433.071 179.188 433.335 179.476C433.607 179.756 433.959 179.896 434.391 179.896ZM441.67 181.12C440.622 181.12 439.81 180.752 439.234 180.016C438.666 179.28 438.382 178.248 438.382 176.92C438.382 175.488 438.702 174.38 439.342 173.596C439.99 172.812 440.882 172.42 442.018 172.42C442.466 172.42 442.91 172.504 443.35 172.672C443.79 172.832 444.166 173.064 444.478 173.368L443.974 174.52C443.678 174.248 443.362 174.048 443.026 173.92C442.69 173.784 442.346 173.716 441.994 173.716C441.298 173.716 440.766 173.96 440.398 174.448C440.03 174.936 439.846 175.664 439.846 176.632V176.98C440.014 176.54 440.286 176.196 440.662 175.948C441.038 175.7 441.47 175.576 441.958 175.576C442.446 175.576 442.878 175.692 443.254 175.924C443.63 176.156 443.926 176.476 444.142 176.884C444.358 177.292 444.466 177.76 444.466 178.288C444.466 178.832 444.346 179.32 444.106 179.752C443.874 180.176 443.546 180.512 443.122 180.76C442.706 181 442.222 181.12 441.67 181.12ZM441.586 179.896C442.018 179.896 442.366 179.756 442.63 179.476C442.902 179.188 443.038 178.812 443.038 178.348C443.038 177.884 442.902 177.508 442.63 177.22C442.366 176.932 442.018 176.788 441.586 176.788C441.154 176.788 440.802 176.932 440.53 177.22C440.266 177.508 440.134 177.884 440.134 178.348C440.134 178.812 440.266 179.188 440.53 179.476C440.802 179.756 441.154 179.896 441.586 179.896ZM449.141 181V179.392H445.457V178.264L449.405 172.54H450.677V178.12H451.865V179.392H450.677V181H449.141ZM449.141 178.12V174.892L446.933 178.12H449.141ZM452.796 181V179.332H454.476V181H452.796ZM456.157 181L459.973 173.824H455.785V172.54H461.677V173.692L457.849 181H456.157ZM463.352 181L467.168 173.824H462.98V172.54H468.872V173.692L465.044 181H463.352Z" fill="#141816"/>
<path fill-rule="evenodd" clip-rule="evenodd" d="M436 205C438.209 205 440 203.209 440 201C440 198.791 438.209 197 436 197C433.791 197 432 198.791 432 201C432 203.209 433.791 205 436 205Z" fill="#7CBE5D"/>
<path fill-rule="evenodd" clip-rule="evenodd" d="M402 304C404.209 304 406 302.209 406 300C406 297.791 404.209 296 402 296C399.791 296 398 297.791 398 300C398 302.209 399.791 304 402 304Z" fill="#7CBE5D"/>
<path fill-rule="evenodd" clip-rule="evenodd" d="M337 368C339.209 368 341 366.209 341 364C341 361.791 339.209 360 337 360C334.791 360 333 361.791 333 364C333 366.209 334.791 368 337 368Z" fill="#7CBE5D"/>
<path fill-rule="evenodd" clip-rule="evenodd" d="M301 308C303.209 308 305 306.209 305 304C305 301.791 303.209 300 301 300C298.791 300 297 301.791 297 304C297 306.209 298.791 308 301 308Z" fill="#7CBE5D"/>
<path fill-rule="evenodd" clip-rule="evenodd" d="M245 317C247.209 317 249 315.209 249 313C249 310.791 247.209 309 245 309C242.791 309 241 310.791 241 313C241 315.209 242.791 317 245 317Z" fill="#7CBE5D"/>
<path fill-rule="evenodd" clip-rule="evenodd" d="M215 372C217.209 372 219 370.209 219 368C219 365.791 217.209 364 215 364C212.791 364 211 365.791 211 368C211 370.209 212.791 372 215 372Z" fill="#7CBE5D"/>
<path fill-rule="evenodd" clip-rule="evenodd" d="M157 402C159.209 402 161 400.209 161 398C161 395.791 159.209 394 157 394C154.791 394 153 395.791 153 398C153 400.209 154.791 402 157 402Z" fill="#7CBE5D"/>
<path fill-rule="evenodd" clip-rule="evenodd" d="M487 305C489.209 305 491 303.209 491 301C491 298.791 489.209 297 487 297C484.791 297 483 298.791 483 301C483 303.209 484.791 305 487 305Z" fill="#7CBE5D"/>
<path fill-rule="evenodd" clip-rule="evenodd" d="M566 299C568.209 299 570 297.209 570 295C570 292.791 568.209 291 566 291C563.791 291 562 292.791 562 295C562 297.209 563.791 299 566 299Z" fill="#7CBE5D"/>
<path fill-rule="evenodd" clip-rule="evenodd" d="M651 278C653.209 278 655 276.209 655 274C655 271.791 653.209 270 651 270C648.791 270 647 271.791 647 274C647 276.209 648.791 278 651 278Z" fill="#7CBE5D"/>
<path fill-rule="evenodd" clip-rule="evenodd" d="M673 388C675.209 388 677 386.209 677 384C677 381.791 675.209 380 673 380C670.791 380 669 381.791 669 384C669 386.209 670.791 388 673 388Z" fill="#7CBE5D"/>
<path fill-rule="evenodd" clip-rule="evenodd" d="M738 380C740.209 380 742 378.209 742 376C742 373.791 740.209 372 738 372C735.791 372 734 373.791 734 376C734 378.209 735.791 380 738 380Z" fill="#7CBE5D"/>
<path fill-rule="evenodd" clip-rule="evenodd" d="M807 246C809.209 246 811 244.209 811 242C811 239.791 809.209 238 807 238C804.791 238 803 239.791 803 242C803 244.209 804.791 246 807 246Z" fill="#7CBE5D"/>
<path fill-rule="evenodd" clip-rule="evenodd" d="M816 331C818.209 331 820 329.209 820 327C820 324.791 818.209 323 816 323C813.791 323 812 324.791 812 327C812 329.209 813.791 331 816 331Z" fill="#7CBE5D"/>
<path fill-rule="evenodd" clip-rule="evenodd" d="M845 286C847.209 286 849 284.209 849 282C849 279.791 847.209 278 845 278C842.791 278 841 279.791 841 282C841 284.209 842.791 286 845 286Z" fill="#7CBE5D"/>
<path fill-rule="evenodd" clip-rule="evenodd" d="M877 266C879.209 266 881 264.209 881 262C881 259.791 879.209 258 877 258C874.791 258 873 259.791 873 262C873 264.209 874.791 266 877 266Z" fill="#7CBE5D"/>
<path fill-rule="evenodd" clip-rule="evenodd" d="M989 289C991.209 289 993 287.209 993 285C993 282.791 991.209 281 989 281C986.791 281 985 282.791 985 285C985 287.209 986.791 289 989 289Z" fill="#7CBE5D"/>
<path fill-rule="evenodd" clip-rule="evenodd" d="M1024 335C1026.21 335 1028 333.209 1028 331C1028 328.791 1026.21 327 1024 327C1021.79 327 1020 328.791 1020 331C1020 333.209 1021.79 335 1024 335Z" fill="#7CBE5D"/>
<path fill-rule="evenodd" clip-rule="evenodd" d="M1045 294C1047.21 294 1049 292.209 1049 290C1049 287.791 1047.21 286 1045 286C1042.79 286 1041 287.791 1041 290C1041 292.209 1042.79 294 1045 294Z" fill="#7CBE5D"/>
<path fill-rule="evenodd" clip-rule="evenodd" d="M1087 292C1089.21 292 1091 290.209 1091 288C1091 285.791 1089.21 284 1087 284C1084.79 284 1083 285.791 1083 288C1083 290.209 1084.79 292 1087 292Z" fill="#7CBE5D"/>
<rect x="1050.3" y="80.3" width="103.4" height="27.4" rx="3.7" fill="#141816" stroke="#141816" stroke-width="0.6"/>
<path d="M1136.86 91.2681L1133 95.2936L1129.14 91.2681C1128.84 90.9181 1128.53 90.9108 1128.23 91.2462C1127.92 91.5817 1127.92 91.9099 1128.23 92.2307L1132.54 96.7812C1132.65 96.9271 1132.81 97 1133 97C1133.19 97 1133.35 96.9271 1133.46 96.7812L1137.77 92.2307C1138.08 91.9099 1138.08 91.5817 1137.77 91.2462C1137.47 90.9108 1137.16 90.9181 1136.86 91.2681Z" fill="#EEF1E3"/>
<path d="M1073.62 98.108C1072.81 98.108 1072.11 97.932 1071.52 97.58C1070.92 97.22 1070.46 96.716 1070.14 96.068C1069.82 95.412 1069.66 94.644 1069.66 93.764C1069.66 92.876 1069.82 92.108 1070.14 91.46C1070.46 90.812 1070.92 90.312 1071.52 89.96C1072.11 89.608 1072.81 89.432 1073.62 89.432C1074.42 89.432 1075.11 89.608 1075.7 89.96C1076.3 90.312 1076.76 90.812 1077.08 91.46C1077.41 92.108 1077.58 92.872 1077.58 93.752C1077.58 94.64 1077.41 95.412 1077.08 96.068C1076.76 96.716 1076.3 97.22 1075.7 97.58C1075.11 97.932 1074.42 98.108 1073.62 98.108ZM1073.62 97.028C1074.46 97.028 1075.11 96.744 1075.57 96.176C1076.04 95.6 1076.28 94.796 1076.28 93.764C1076.28 92.732 1076.05 91.932 1075.58 91.364C1075.12 90.796 1074.46 90.512 1073.62 90.512C1072.78 90.512 1072.12 90.796 1071.65 91.364C1071.18 91.932 1070.95 92.732 1070.95 93.764C1070.95 94.796 1071.18 95.6 1071.65 96.176C1072.12 96.744 1072.78 97.028 1073.62 97.028ZM1081.7 98.108C1081.1 98.108 1080.58 97.984 1080.14 97.736C1079.71 97.48 1079.37 97.124 1079.13 96.668C1078.89 96.204 1078.77 95.66 1078.77 95.036C1078.77 94.108 1079.03 93.376 1079.56 92.84C1080.09 92.304 1080.8 92.036 1081.7 92.036C1082.07 92.036 1082.43 92.1 1082.79 92.228C1083.15 92.356 1083.45 92.532 1083.68 92.756L1083.29 93.608C1083.07 93.4 1082.82 93.248 1082.55 93.152C1082.29 93.048 1082.03 92.996 1081.79 92.996C1081.23 92.996 1080.79 93.176 1080.47 93.536C1080.17 93.888 1080.02 94.392 1080.02 95.048C1080.02 95.704 1080.17 96.22 1080.47 96.596C1080.79 96.964 1081.23 97.148 1081.79 97.148C1082.03 97.148 1082.29 97.1 1082.55 97.004C1082.82 96.9 1083.07 96.744 1083.29 96.536L1083.68 97.4C1083.45 97.616 1083.15 97.788 1082.78 97.916C1082.42 98.044 1082.06 98.108 1081.7 98.108ZM1087.23 98.108C1086.49 98.108 1085.94 97.92 1085.58 97.544C1085.22 97.168 1085.04 96.624 1085.04 95.912V93.08H1083.9V92.144H1085.04V90.38H1086.25V92.144H1088.07V93.08H1086.25V95.816C1086.25 96.24 1086.34 96.56 1086.52 96.776C1086.7 96.992 1087 97.1 1087.41 97.1C1087.53 97.1 1087.66 97.088 1087.78 97.064C1087.9 97.032 1088.02 96.996 1088.14 96.956L1088.33 97.868C1088.21 97.94 1088.04 97.996 1087.83 98.036C1087.62 98.084 1087.42 98.108 1087.23 98.108ZM1091.6 98.108C1091.01 98.108 1090.5 97.984 1090.06 97.736C1089.63 97.488 1089.3 97.14 1089.06 96.692C1088.82 96.236 1088.71 95.696 1088.71 95.072C1088.71 94.448 1088.82 93.912 1089.06 93.464C1089.3 93.008 1089.63 92.656 1090.06 92.408C1090.5 92.16 1091.01 92.036 1091.6 92.036C1092.18 92.036 1092.68 92.16 1093.11 92.408C1093.54 92.656 1093.88 93.008 1094.12 93.464C1094.36 93.912 1094.48 94.448 1094.48 95.072C1094.48 95.696 1094.36 96.236 1094.12 96.692C1093.88 97.14 1093.54 97.488 1093.11 97.736C1092.68 97.984 1092.18 98.108 1091.6 98.108ZM1091.6 97.172C1092.1 97.172 1092.5 96.992 1092.8 96.632C1093.1 96.272 1093.26 95.752 1093.26 95.072C1093.26 94.392 1093.1 93.876 1092.8 93.524C1092.5 93.164 1092.1 92.984 1091.6 92.984C1091.1 92.984 1090.69 93.164 1090.39 93.524C1090.08 93.876 1089.93 94.392 1089.93 95.072C1089.93 95.752 1090.08 96.272 1090.39 96.632C1090.69 96.992 1091.1 97.172 1091.6 97.172ZM1098.98 98.108C1098.54 98.108 1098.14 98.008 1097.8 97.808C1097.45 97.608 1097.2 97.34 1097.03 97.004V98H1095.84V89.54H1097.05V93.092C1097.23 92.772 1097.48 92.516 1097.82 92.324C1098.16 92.132 1098.55 92.036 1098.98 92.036C1099.5 92.036 1099.96 92.16 1100.34 92.408C1100.73 92.656 1101.03 93.008 1101.24 93.464C1101.46 93.912 1101.56 94.448 1101.56 95.072C1101.56 95.696 1101.46 96.236 1101.24 96.692C1101.03 97.148 1100.73 97.5 1100.34 97.748C1099.96 97.988 1099.5 98.108 1098.98 98.108ZM1098.68 97.172C1099.19 97.172 1099.59 96.992 1099.88 96.632C1100.19 96.272 1100.34 95.752 1100.34 95.072C1100.34 94.392 1100.19 93.876 1099.88 93.524C1099.59 93.164 1099.19 92.984 1098.68 92.984C1098.18 92.984 1097.78 93.164 1097.47 93.524C1097.18 93.876 1097.03 94.392 1097.03 95.072C1097.03 95.752 1097.18 96.272 1097.47 96.632C1097.78 96.992 1098.18 97.172 1098.68 97.172ZM1105.68 98.108C1104.72 98.108 1103.96 97.84 1103.41 97.304C1102.86 96.76 1102.58 96.02 1102.58 95.084C1102.58 94.484 1102.7 93.956 1102.94 93.5C1103.19 93.036 1103.53 92.676 1103.96 92.42C1104.39 92.164 1104.89 92.036 1105.45 92.036C1106.26 92.036 1106.89 92.296 1107.36 92.816C1107.82 93.328 1108.05 94.036 1108.05 94.94V95.348H1103.76C1103.85 96.564 1104.49 97.172 1105.69 97.172C1106.03 97.172 1106.35 97.12 1106.67 97.016C1107 96.912 1107.31 96.74 1107.6 96.5L1107.96 97.34C1107.69 97.58 1107.35 97.768 1106.94 97.904C1106.52 98.04 1106.1 98.108 1105.68 98.108ZM1105.5 92.888C1104.99 92.888 1104.59 93.044 1104.3 93.356C1104 93.668 1103.82 94.084 1103.76 94.604H1107.03C1107.01 94.06 1106.87 93.64 1106.6 93.344C1106.34 93.04 1105.97 92.888 1105.5 92.888ZM1109.38 98V92.144H1110.55V93.188C1110.86 92.492 1111.49 92.104 1112.45 92.024L1112.84 92L1112.93 93.032L1112.2 93.104C1111.13 93.208 1110.6 93.756 1110.6 94.748V98H1109.38Z" fill="#EEF1E3"/>
<path d="M87.68 103.24C86.352 103.24 85.12 103.072 83.984 102.736C82.848 102.384 81.888 101.912 81.104 101.32L82.04 98.896C82.824 99.456 83.68 99.888 84.608 100.192C85.552 100.496 86.576 100.648 87.68 100.648C88.944 100.648 89.864 100.44 90.44 100.024C91.016 99.592 91.304 99.04 91.304 98.368C91.304 97.808 91.096 97.368 90.68 97.048C90.28 96.728 89.584 96.464 88.592 96.256L85.952 95.704C82.944 95.064 81.44 93.52 81.44 91.072C81.44 90.016 81.72 89.096 82.28 88.312C82.84 87.528 83.616 86.92 84.608 86.488C85.6 86.056 86.744 85.84 88.04 85.84C89.192 85.84 90.272 86.016 91.28 86.368C92.288 86.704 93.128 87.184 93.8 87.808L92.864 90.112C91.536 88.992 89.92 88.432 88.016 88.432C86.912 88.432 86.048 88.664 85.424 89.128C84.8 89.592 84.488 90.2 84.488 90.952C84.488 91.528 84.68 91.992 85.064 92.344C85.448 92.68 86.104 92.944 87.032 93.136L89.648 93.688C91.232 94.024 92.408 94.552 93.176 95.272C93.96 95.992 94.352 96.952 94.352 98.152C94.352 99.16 94.08 100.048 93.536 100.816C92.992 101.584 92.216 102.184 91.208 102.616C90.216 103.032 89.04 103.24 87.68 103.24ZM100.565 103.24C99.7166 103.24 98.9566 103.08 98.2846 102.76C97.6286 102.424 97.1086 101.976 96.7246 101.416C96.3566 100.856 96.1726 100.224 96.1726 99.52C96.1726 98.656 96.3966 97.976 96.8446 97.48C97.2926 96.968 98.0206 96.6 99.0286 96.376C100.037 96.152 101.389 96.04 103.085 96.04H103.925V95.536C103.925 94.736 103.749 94.16 103.397 93.808C103.045 93.456 102.453 93.28 101.621 93.28C100.965 93.28 100.293 93.384 99.6046 93.592C98.9166 93.784 98.2206 94.088 97.5166 94.504L96.6526 92.464C97.0686 92.176 97.5566 91.928 98.1166 91.72C98.6926 91.496 99.2926 91.328 99.9166 91.216C100.557 91.088 101.157 91.024 101.717 91.024C103.429 91.024 104.701 91.424 105.533 92.224C106.365 93.008 106.781 94.232 106.781 95.896V103H103.973V101.128C103.701 101.784 103.269 102.304 102.677 102.688C102.085 103.056 101.381 103.24 100.565 103.24ZM101.189 101.176C101.973 101.176 102.621 100.904 103.133 100.36C103.661 99.816 103.925 99.128 103.925 98.296V97.768H103.109C101.605 97.768 100.557 97.888 99.9646 98.128C99.3886 98.352 99.1006 98.768 99.1006 99.376C99.1006 99.904 99.2846 100.336 99.6526 100.672C100.021 101.008 100.533 101.176 101.189 101.176ZM113.906 103.24C112.514 103.24 111.482 102.864 110.81 102.112C110.154 101.344 109.826 100.224 109.826 98.752V86.08H112.826V98.608C112.826 100.048 113.434 100.768 114.65 100.768C114.826 100.768 115.002 100.76 115.178 100.744C115.354 100.728 115.522 100.696 115.682 100.648L115.634 103.024C115.058 103.168 114.482 103.24 113.906 103.24ZM123.157 103.24C121.829 103.24 120.685 102.992 119.725 102.496C118.765 102 118.021 101.296 117.493 100.384C116.981 99.472 116.725 98.392 116.725 97.144C116.725 95.928 116.973 94.864 117.469 93.952C117.981 93.04 118.677 92.328 119.557 91.816C120.453 91.288 121.469 91.024 122.605 91.024C124.269 91.024 125.581 91.552 126.541 92.608C127.517 93.664 128.005 95.104 128.005 96.928V97.816H119.605C119.829 99.912 121.029 100.96 123.205 100.96C123.861 100.96 124.517 100.864 125.173 100.672C125.829 100.464 126.429 100.144 126.973 99.712L127.812 101.728C127.253 102.192 126.549 102.56 125.701 102.832C124.853 103.104 124.005 103.24 123.157 103.24ZM122.725 93.064C121.845 93.064 121.133 93.336 120.589 93.88C120.045 94.424 119.717 95.16 119.605 96.088H125.509C125.445 95.112 125.173 94.368 124.693 93.856C124.229 93.328 123.573 93.064 122.725 93.064ZM134.676 103.24C133.684 103.24 132.756 103.12 131.892 102.88C131.028 102.64 130.308 102.296 129.732 101.848L130.5 99.88C131.092 100.28 131.756 100.592 132.492 100.816C133.228 101.024 133.964 101.128 134.7 101.128C135.468 101.128 136.036 101 136.404 100.744C136.788 100.472 136.98 100.12 136.98 99.688C136.98 99.016 136.484 98.584 135.492 98.392L133.092 97.936C131.06 97.552 130.044 96.496 130.044 94.768C130.044 94 130.252 93.336 130.668 92.776C131.1 92.216 131.692 91.784 132.444 91.48C133.196 91.176 134.06 91.024 135.036 91.024C135.868 91.024 136.668 91.144 137.436 91.384C138.204 91.608 138.86 91.952 139.404 92.416L138.588 94.384C138.124 94 137.564 93.696 136.908 93.472C136.268 93.248 135.652 93.136 135.06 93.136C134.276 93.136 133.692 93.272 133.308 93.544C132.94 93.816 132.756 94.176 132.756 94.624C132.756 95.328 133.212 95.76 134.124 95.92L136.524 96.376C137.564 96.568 138.348 96.92 138.876 97.432C139.42 97.944 139.692 98.632 139.692 99.496C139.692 100.664 139.236 101.584 138.324 102.256C137.412 102.912 136.196 103.24 134.676 103.24ZM148.856 103V86.08H155.144C157.976 86.08 160.16 86.808 161.696 88.264C163.248 89.72 164.024 91.808 164.024 94.528C164.024 97.232 163.248 99.32 161.696 100.792C160.16 102.264 157.976 103 155.144 103H148.856ZM151.928 100.456H154.952C158.856 100.456 160.808 98.48 160.808 94.528C160.808 90.592 158.856 88.624 154.952 88.624H151.928V100.456ZM172.633 103.24C171.305 103.24 170.161 102.992 169.201 102.496C168.241 102 167.497 101.296 166.969 100.384C166.457 99.472 166.201 98.392 166.201 97.144C166.201 95.928 166.449 94.864 166.945 93.952C167.457 93.04 168.153 92.328 169.033 91.816C169.929 91.288 170.945 91.024 172.081 91.024C173.745 91.024 175.057 91.552 176.017 92.608C176.993 93.664 177.481 95.104 177.481 96.928V97.816H169.081C169.305 99.912 170.505 100.96 172.681 100.96C173.337 100.96 173.993 100.864 174.649 100.672C175.305 100.464 175.905 100.144 176.449 99.712L177.289 101.728C176.729 102.192 176.025 102.56 175.177 102.832C174.329 103.104 173.481 103.24 172.633 103.24ZM172.201 93.064C171.321 93.064 170.609 93.336 170.065 93.88C169.521 94.424 169.193 95.16 169.081 96.088H174.985C174.921 95.112 174.649 94.368 174.169 93.856C173.705 93.328 173.049 93.064 172.201 93.064ZM185.186 103.24C182.082 103.24 180.53 101.704 180.53 98.632V93.52H178.274V91.264H180.53V87.76H183.53V91.264H187.082V93.52H183.53V98.464C183.53 99.232 183.698 99.808 184.034 100.192C184.37 100.576 184.914 100.768 185.666 100.768C185.89 100.768 186.122 100.744 186.362 100.696C186.602 100.632 186.85 100.568 187.106 100.504L187.562 102.712C187.274 102.872 186.906 103 186.458 103.096C186.026 103.192 185.602 103.24 185.186 103.24ZM192.885 103.24C192.037 103.24 191.277 103.08 190.605 102.76C189.949 102.424 189.429 101.976 189.045 101.416C188.677 100.856 188.493 100.224 188.493 99.52C188.493 98.656 188.717 97.976 189.165 97.48C189.613 96.968 190.341 96.6 191.349 96.376C192.357 96.152 193.709 96.04 195.405 96.04H196.245V95.536C196.245 94.736 196.069 94.16 195.717 93.808C195.365 93.456 194.773 93.28 193.941 93.28C193.285 93.28 192.613 93.384 191.925 93.592C191.237 93.784 190.541 94.088 189.837 94.504L188.973 92.464C189.389 92.176 189.877 91.928 190.437 91.72C191.013 91.496 191.613 91.328 192.237 91.216C192.877 91.088 193.477 91.024 194.037 91.024C195.749 91.024 197.021 91.424 197.853 92.224C198.685 93.008 199.101 94.232 199.101 95.896V103H196.293V101.128C196.021 101.784 195.589 102.304 194.997 102.688C194.405 103.056 193.701 103.24 192.885 103.24ZM193.509 101.176C194.293 101.176 194.941 100.904 195.453 100.36C195.981 99.816 196.245 99.128 196.245 98.296V97.768H195.429C193.925 97.768 192.877 97.888 192.285 98.128C191.709 98.352 191.421 98.768 191.421 99.376C191.421 99.904 191.605 100.336 191.973 100.672C192.341 101.008 192.853 101.176 193.509 101.176ZM201.954 88.744V85.816H205.314V88.744H201.954ZM202.146 103V91.264H205.146V103H202.146ZM212.343 103.24C210.951 103.24 209.919 102.864 209.247 102.112C208.591 101.344 208.263 100.224 208.263 98.752V86.08H211.263V98.608C211.263 100.048 211.871 100.768 213.087 100.768C213.263 100.768 213.439 100.76 213.615 100.744C213.791 100.728 213.959 100.696 214.119 100.648L214.071 103.024C213.495 103.168 212.919 103.24 212.343 103.24ZM220.106 103.24C219.114 103.24 218.186 103.12 217.322 102.88C216.458 102.64 215.738 102.296 215.162 101.848L215.93 99.88C216.522 100.28 217.186 100.592 217.922 100.816C218.658 101.024 219.394 101.128 220.13 101.128C220.898 101.128 221.466 101 221.834 100.744C222.218 100.472 222.41 100.12 222.41 99.688C222.41 99.016 221.914 98.584 220.922 98.392L218.522 97.936C216.49 97.552 215.474 96.496 215.474 94.768C215.474 94 215.682 93.336 216.098 92.776C216.53 92.216 217.122 91.784 217.874 91.48C218.626 91.176 219.49 91.024 220.466 91.024C221.298 91.024 222.098 91.144 222.866 91.384C223.634 91.608 224.29 91.952 224.834 92.416L224.018 94.384C223.554 94 222.994 93.696 222.338 93.472C221.698 93.248 221.082 93.136 220.49 93.136C219.706 93.136 219.122 93.272 218.738 93.544C218.37 93.816 218.186 94.176 218.186 94.624C218.186 95.328 218.642 95.76 219.554 95.92L221.954 96.376C222.994 96.568 223.778 96.92 224.306 97.432C224.85 97.944 225.122 98.632 225.122 99.496C225.122 100.664 224.666 101.584 223.754 102.256C222.842 102.912 221.626 103.24 220.106 103.24Z" fill="#EEF1E3"/>
<defs>
<filter id="filter0_d_4_1504" x="0" y="0" width="1246" height="552" filterUnits="userSpaceOnUse" color-interpolation-filters="sRGB">
<feFlood flood-opacity="0" result="BackgroundImageFix"/>
<feColorMatrix in="SourceAlpha" type="matrix" values="0 0 0 0 0 0 0 0 0 0 0 0 0 0 0 0 0 0 127 0" result="hardAlpha"/>
<feOffset dx="6" dy="6"/>
<feGaussianBlur stdDeviation="27"/>
<feColorMatrix type="matrix" values="0 0 0 0 0 0 0 0 0 0 0 0 0 0 0 0 0 0 0.05 0"/>
<feBlend mode="normal" in2="BackgroundImageFix" result="effect1_dropShadow_4_1504"/>
<feBlend mode="normal" in="SourceGraphic" in2="effect1_dropShadow_4_1504" result="shape"/>
</filter>
<linearGradient id="paint0_linear_4_1504" x1="405.5" y1="302.822" x2="405.5" y2="400" gradientUnits="userSpaceOnUse">
<stop stop-color="#7CBE5D" stop-opacity="0.12"/>
<stop offset="1" stop-color="#7CBE5D" stop-opacity="0"/>
</linearGradient>
</defs>
</svg>
