<svg width="33" height="33" viewBox="0 0 33 33" fill="none" xmlns="http://www.w3.org/2000/svg">
<path d="M21.3243 14.6632H27.3243C27.9874 14.6632 28.6233 14.3998 29.0921 13.931C29.5609 13.4621 29.8243 12.8262 29.8243 12.1632V6.16321C29.8243 5.50017 29.5609 4.86428 29.0921 4.39544C28.6233 3.9266 27.9874 3.66321 27.3243 3.66321H21.3243C20.6613 3.66321 20.0254 3.9266 19.5566 4.39544C19.0877 4.86428 18.8243 5.50017 18.8243 6.16321V7.66321H18.3243C17.1309 7.66321 15.9863 8.13731 15.1424 8.98123C14.2984 9.82514 13.8243 10.9697 13.8243 12.1632V14.6632H10.8243V14.1632C10.8243 13.5002 10.5609 12.8643 10.0921 12.3954C9.62327 11.9266 8.98738 11.6632 8.32434 11.6632H4.32434C3.6613 11.6632 3.02541 11.9266 2.55657 12.3954C2.08773 12.8643 1.82434 13.5002 1.82434 14.1632V18.1632C1.82434 18.4915 1.88901 18.8166 2.01464 19.1199C2.14028 19.4232 2.32443 19.6988 2.55657 19.931C2.78872 20.1631 3.06432 20.3473 3.36763 20.4729C3.67095 20.5985 3.99604 20.6632 4.32434 20.6632H8.32434C8.65265 20.6632 8.97774 20.5985 9.28105 20.4729C9.58436 20.3473 9.85996 20.1631 10.0921 19.931C10.3243 19.6988 10.5084 19.4232 10.634 19.1199C10.7597 18.8166 10.8243 18.4915 10.8243 18.1632V17.6632H13.8243V20.1632C13.8243 21.3567 14.2984 22.5013 15.1424 23.3452C15.9863 24.1891 17.1309 24.6632 18.3243 24.6632H18.8243V26.1632C18.8243 26.8262 19.0877 27.4621 19.5566 27.931C20.0254 28.3998 20.6613 28.6632 21.3243 28.6632H27.3243C27.9874 28.6632 28.6233 28.3998 29.0921 27.931C29.5609 27.4621 29.8243 26.8262 29.8243 26.1632V20.1632C29.8243 19.5002 29.5609 18.8643 29.0921 18.3954C28.6233 17.9266 27.9874 17.6632 27.3243 17.6632H21.3243C20.6613 17.6632 20.0254 17.9266 19.5566 18.3954C19.0877 18.8643 18.8243 19.5002 18.8243 20.1632V21.6632H18.3243C17.9265 21.6632 17.545 21.5052 17.2637 21.2239C16.9824 20.9426 16.8243 20.561 16.8243 20.1632V12.1632C16.8243 11.7654 16.9824 11.3839 17.2637 11.1025C17.545 10.8212 17.9265 10.6632 18.3243 10.6632H18.8243V12.1632C18.8243 12.8262 19.0877 13.4621 19.5566 13.931C20.0254 14.3998 20.6613 14.6632 21.3243 14.6632ZM7.82434 17.6632H4.82434V14.6632H7.82434V17.6632ZM21.8243 20.6632H26.8243V25.6632H21.8243V20.6632ZM21.8243 6.66321H26.8243V11.6632H21.8243V6.66321Z" fill="#7CBE5D"/>
</svg>
